<?xml version="1.0" encoding="UTF-8" standalone="no"?>
<!-- Created with Inkscape (http://www.inkscape.org/) -->

<svg
   width="256"
   height="256"
   viewBox="0 0 256 256"
   version="1.1"
   id="svg6439"
   inkscape:version="1.1.1 (3bf5ae0d25, 2021-09-20, custom)"
   sodipodi:docname="src.svg"
   xmlns:inkscape="http://www.inkscape.org/namespaces/inkscape"
   xmlns:sodipodi="http://sodipodi.sourceforge.net/DTD/sodipodi-0.dtd"
   xmlns="http://www.w3.org/2000/svg"
   xmlns:svg="http://www.w3.org/2000/svg">
  <sodipodi:namedview
     id="namedview6441"
     pagecolor="#bfbfbf"
     bordercolor="#ffffff"
     borderopacity="1"
     inkscape:pageshadow="0"
     inkscape:pageopacity="0"
     inkscape:pagecheckerboard="1"
     inkscape:document-units="px"
     showgrid="false"
     units="px"
     width="512px"
     inkscape:zoom="3.0976562"
     inkscape:cx="128"
     inkscape:cy="128"
     inkscape:window-width="1920"
     inkscape:window-height="1050"
     inkscape:window-x="0"
     inkscape:window-y="28"
     inkscape:window-maximized="1"
     inkscape:current-layer="layer1"
     borderlayer="true" />
  <defs
     id="defs6436" />
  <g
     inkscape:label="Layer 1"
     inkscape:groupmode="layer"
     id="layer1"
     style="display:inline">
    <g
       id="sym-0">
      <path
         id="sym-0-bbox"
         style="fill:none;stroke:none;stroke-width:0"
         d="M 0,0 H 64 V 64 H 0 Z" />
      <path
         id="path2712"
         style="color:#000000;stroke:none;stroke-linejoin:round;-inkscape-stroke:none;paint-order:stroke fill markers"
         d="M 64 0 C 28.795947 0 0 28.795947 0 64 L 24 64 C 24 41.766497 41.766497 24 64 24 L 64 0 z " />
    </g>
    <g
       id="sym-1"
       style="display:inline"
       transform="translate(64)">
      <path
         id="sym-1-bbox"
         style="fill:none;stroke:none;stroke-width:0"
         d="M 0,0 H 64 V 64 H 0 Z" />
      <path
         id="path2879"
         style="color:#000000;stroke:none;stroke-linejoin:round;-inkscape-stroke:none;paint-order:stroke fill markers"
         d="M 64 0 L 64 24 C 86.233503 24 104 41.766497 104 64 L 128 64 C 128 28.795947 99.204053 0 64 0 z "
         transform="translate(-64)" />
    </g>
    <g
       id="sym-2"
       transform="translate(128)">
      <path
         id="sym-2-bbox"
         style="fill:none;stroke:none;stroke-width:0"
         d="M 0,0 H 64 V 64 H 0 Z" />
      <path
         id="rect3031"
         style="color:#000000;-inkscape-stroke:none;paint-order:stroke fill markers;stroke:none"
         d="M 128 0 L 128 12 L 128 64 L 152 64 L 152 24 L 192 24 L 192 0 L 128 0 z "
         transform="translate(-128)" />
    </g>
    <g
       id="sym-3"
       style="display:inline"
       transform="translate(192)">
      <path
         id="sym-3-bbox"
         style="fill:none;stroke:none;stroke-width:0"
         d="M 0,0 H 64 V 64 H 0 Z" />
      <path
         id="path3270"
         style="color:#000000;-inkscape-stroke:none;paint-order:stroke fill markers;stroke:none"
         d="M 192 0 L 192 24 L 232 24 L 232 64 L 256 64 L 256 0 L 192 0 z "
         transform="translate(-192)" />
    </g>
    <g
       id="sym-4"
       style="display:inline"
       transform="translate(0,64)">
      <path
         id="sym-4-bbox"
         style="fill:none;stroke:none;stroke-width:0"
         d="M 0,0 H 64 V 64 H 0 Z" />
      <path
         id="path2882"
         style="color:#000000;stroke:none;stroke-linejoin:round;-inkscape-stroke:none;paint-order:stroke fill markers"
         d="M 0 64 C 0 99.204053 28.795947 128 64 128 L 64 104 C 41.766497 104 24 86.233503 24 64 L 0 64 z "
         transform="translate(0,-64)" />
    </g>
    <g
       id="sym-5"
       style="display:inline"
       transform="translate(64,64)">
      <path
         id="sym-5-bbox"
         style="fill:none;stroke:none;stroke-width:0"
         d="M 0,0 H 64 V 64 H 0 Z" />
      <path
         id="path2885"
         style="color:#000000;stroke:none;stroke-linejoin:round;-inkscape-stroke:none;paint-order:stroke fill markers"
         d="M 104 64 C 104 86.233503 86.233503 104 64 104 L 64 128 C 99.204053 128 128 99.204053 128 64 L 104 64 z "
         transform="translate(-64,-64)" />
    </g>
    <g
       id="sym-6"
       style="display:inline"
       transform="translate(128,64)">
      <path
         id="sym-6-bbox"
         style="fill:none;stroke:none;stroke-width:0"
         d="M 0,0 H 64 V 64 H 0 Z" />
      <path
         id="path3273"
         style="color:#000000;-inkscape-stroke:none;paint-order:stroke fill markers;stroke:none"
         d="M 128 64 L 128 128 L 192 128 L 192 104 L 152 104 L 152 64 L 128 64 z "
         transform="translate(-128,-64)" />
    </g>
    <g
       id="sym-7"
       style="display:inline"
       transform="translate(192,64)">
      <path
         id="sym-7-bbox"
         style="fill:none;stroke:none;stroke-width:0"
         d="M 0,0 H 64 V 64 H 0 Z" />
      <path
         id="path3276"
         style="color:#000000;-inkscape-stroke:none;paint-order:stroke fill markers;stroke:none"
         d="M 232 64 L 232 104 L 192 104 L 192 128 L 256 128 L 256 64 L 232 64 z "
         transform="translate(-192,-64)" />
    </g>
    <g
       id="sym-8"
       transform="translate(0,128)">
      <path
         id="sym-8-bbox"
         style="fill:none;stroke:none;stroke-width:0"
         d="M 0,0 H 64 V 64 H 0 Z" />
      <path
         id="rect3451"
         style="stroke-width:23.9999;paint-order:stroke fill markers;stop-color:#000000;stroke:none"
         d="M 20 128 L 20 148 L 0 148 L 0 172 L 20 172 L 20 192 L 44 192 L 44 172 L 64 172 L 64 148 L 44 148 L 44 128 L 20 128 z "
         transform="translate(0,-128)" />
    </g>
    <g
       id="sym-9"
       transform="translate(64,128)">
      <path
         id="sym-9-bbox"
         style="fill:none;stroke:none;stroke-width:0"
         d="M 0,0 H 64 V 64 H 0 Z" />
      <path
         id="rect3640"
         style="stroke-width:24;paint-order:stroke fill markers;stop-color:#000000;stroke:none"
         d="M 64 148 L 64 172 L 84 172 L 84 192 L 108 192 L 108 172 L 108 148 L 84 148 L 64 148 z "
         transform="translate(-64,-128)" />
    </g>
    <g
       id="sym-10"
       transform="translate(128,128)">
      <path
         id="sym-10-bbox"
         style="fill:none;stroke:none;stroke-width:0"
         d="M 0,0 H 64 V 64 H 0 Z" />
      <path
         id="path3769"
         style="stroke-width:24;paint-order:stroke fill markers;stop-color:#000000;stroke:none"
         d="M 64,20 V 44 H 44 V 64 H 20 V 44 20 h 24 z" />
    </g>
    <g
       id="sym-11"
       transform="translate(192,128)">
      <path
         id="sym-11-bbox"
         style="fill:none;stroke:none;stroke-width:0"
         d="M 0,0 H 64 V 64 H 0 Z" />
      <path
         id="rect3843"
         style="stroke-width:23.9999;paint-order:stroke fill markers;stop-color:#000000;stroke:none"
         d="M 0,20 H 64 V 44 H 0 Z" />
    </g>
    <g
       id="sym-12"
       transform="translate(0,192)">
      <path
         id="sym-12-bbox"
         style="fill:none;stroke:none;stroke-width:0"
         d="M 0,0 H 64 V 64 H 0 Z" />
      <path
         id="path3766"
         style="stroke-width:24;paint-order:stroke fill markers;stop-color:#000000;stroke:none"
         d="M 64,44 V 20 H 44 V 0 H 20 v 20 24 h 24 z" />
    </g>
    <g
       id="sym-13"
       transform="translate(64,192)">
      <path
         id="sym-13-bbox"
         style="fill:none;stroke:none;stroke-width:0"
         d="M 0,0 H 64 V 64 H 0 Z" />
      <path
         id="path3763"
         style="stroke-width:24;paint-order:stroke fill markers;stop-color:#000000;stroke:none"
         d="M 0,44 V 20 H 20 V 0 H 44 V 20 44 H 20 Z" />
    </g>
    <g
       id="sym-14"
       transform="translate(128,192)">
      <path
         id="sym-14-bbox"
         style="fill:none;stroke:none;stroke-width:0"
         d="M 0,0 H 64 V 64 H 0 Z" />
      <path
         id="path3944"
         style="stroke-width:23.9999;paint-order:stroke fill markers;stop-color:#000000;stroke:none"
         d="M 44,0 V 64 H 20 V 0 Z" />
    </g>
    <g
       id="sym-15"
       transform="translate(192,192)">
      <path
         id="sym-15-bbox"
         style="fill:none;stroke:none;stroke-width:0"
         d="M 0,0 H 64 V 64 H 0 Z" />
      <path
         id="path4020"
         style="stroke-width:24.0002;paint-order:stroke fill markers;stop-color:#000000;stroke:none"
         d="m 57.999998,31.999998 a 26,26 0 0 1 -26,26 26,26 0 0 1 -25.9999999,-26 26,26 0 0 1 25.9999999,-25.9999999 26,26 0 0 1 26,25.9999999 z" />
    </g>
  </g>
</svg>
