<?xml version="1.0" encoding="UTF-8" standalone="no"?>
<!-- Created with Inkscape (http://www.inkscape.org/) -->

<svg
   width="256"
   height="256"
   viewBox="0 0 256 256"
   version="1.1"
   id="svg6439"
   inkscape:version="1.1.1 (3bf5ae0d25, 2021-09-20, custom)"
   sodipodi:docname="src.svg"
   xmlns:inkscape="http://www.inkscape.org/namespaces/inkscape"
   xmlns:sodipodi="http://sodipodi.sourceforge.net/DTD/sodipodi-0.dtd"
   xmlns="http://www.w3.org/2000/svg"
   xmlns:svg="http://www.w3.org/2000/svg">
  <sodipodi:namedview
     id="namedview6441"
     pagecolor="#bfbfbf"
     bordercolor="#ffffff"
     borderopacity="1"
     inkscape:pageshadow="0"
     inkscape:pageopacity="0"
     inkscape:pagecheckerboard="1"
     inkscape:document-units="px"
     showgrid="false"
     units="px"
     width="512px"
     inkscape:zoom="3.0976562"
     inkscape:cx="128"
     inkscape:cy="128"
     inkscape:window-width="1920"
     inkscape:window-height="1050"
     inkscape:window-x="0"
     inkscape:window-y="28"
     inkscape:window-maximized="1"
     inkscape:current-layer="sym-7"
     borderlayer="true" />
  <defs
     id="defs6436" />
  <g
     inkscape:label="Layer 1"
     inkscape:groupmode="layer"
     id="layer1"
     style="display:inline">
    <g
       id="sym-0">
      <path
         id="sym-0-bbox"
         style="fill:none;stroke:none;stroke-width:0"
         d="M 0,0 H 64 V 64 H 0 Z" />
      <path
         id="path7157"
         style="color:#000000;-inkscape-stroke:none;paint-order:stroke fill markers;stroke:none"
         d="M 64 20 C 39.841631 20 20 39.841631 20 64 L 44 64 C 44 52.812181 52.812181 44 64 44 L 64 20 z " />
    </g>
    <g
       id="sym-1"
       style="display:inline"
       transform="translate(64)">
      <path
         id="sym-1-bbox"
         style="fill:none;stroke:none;stroke-width:0"
         d="M 0,0 H 64 V 64 H 0 Z" />
      <path
         id="path7874"
         style="color:#000000;stroke:none;-inkscape-stroke:none;paint-order:stroke fill markers"
         d="M 64 20 L 64 44 C 75.187819 44 84 52.812181 84 64 L 108 64 C 108 39.841631 88.158369 20 64 20 z "
         transform="translate(-64)" />
    </g>
    <g
       id="sym-2"
       transform="translate(128)">
      <path
         id="sym-2-bbox"
         style="fill:none;stroke:none;stroke-width:0"
         d="M 0,0 H 64 V 64 H 0 Z" />
      <path
         id="path12632"
         style="stroke-width:24.0002;paint-order:stroke fill markers;stop-color:#000000;stroke:none"
         d="M 160 6 A 26 26 0 0 0 137.00391 20 L 128 20 L 128 44 L 137.00391 44 A 26 26 0 0 0 160 58 A 26 26 0 0 0 182.99609 44 L 192 44 L 192 20 L 183.05859 20 A 26 26 0 0 0 160 6 z "
         transform="translate(-128)" />
    </g>
    <g
       id="sym-3"
       style="display:inline"
       transform="translate(192)">
      <path
         id="sym-3-bbox"
         style="fill:none;stroke:none;stroke-width:0"
         d="M 0,0 H 64 V 64 H 0 Z" />
      <path
         id="path12636"
         style="stroke:none;stroke-width:24.0002;paint-order:stroke fill markers;stop-color:#000000"
         d="M 58,32 A 26,26 0 0 0 44,9.00391 V 0 H 20 V 9.00391 A 26,26 0 0 0 6,32 26,26 0 0 0 20,54.99609 V 64 H 44 V 55.05859 A 26,26 0 0 0 58,32 Z" />
    </g>
    <g
       id="sym-4"
       style="display:inline"
       transform="translate(0,64)">
      <path
         id="sym-4-bbox"
         style="fill:none;stroke:none;stroke-width:0"
         d="M 0,0 H 64 V 64 H 0 Z" />
      <path
         id="path7877"
         style="color:#000000;stroke:none;-inkscape-stroke:none;paint-order:stroke fill markers"
         d="M 20 64 C 20 88.158369 39.841631 108 64 108 L 64 84 C 52.812181 84 44 75.187819 44 64 L 20 64 z "
         transform="translate(0,-64)" />
    </g>
    <g
       id="sym-5"
       style="display:inline"
       transform="translate(64,64)">
      <path
         id="sym-5-bbox"
         style="fill:none;stroke:none;stroke-width:0"
         d="M 0,0 H 64 V 64 H 0 Z" />
      <path
         id="path7880"
         style="color:#000000;stroke:none;-inkscape-stroke:none;paint-order:stroke fill markers"
         d="M 84 64 C 84 75.187819 75.187819 84 64 84 L 64 108 C 88.158369 108 108 88.158369 108 64 L 84 64 z "
         transform="translate(-64,-64)" />
    </g>
    <g
       id="sym-6"
       style="display:inline"
       transform="translate(128,64)">
      <path
         id="sym-6-bbox"
         style="fill:none;stroke:none;stroke-width:0"
         d="M 0,0 H 64 V 64 H 0 Z" />
      <path
         id="path12802"
         style="stroke:none;stroke-width:24;stroke-linejoin:miter;stroke-miterlimit:4;stroke-dasharray:none;stroke-opacity:1;paint-order:stroke fill markers;stop-color:#000000"
         d="M 160 70 A 26 26 0 0 0 137.00391 84 L 128 84 L 128 108 L 137.00391 108 A 26 26 0 0 0 160 122 A 26 26 0 0 0 186 96 A 26 26 0 0 0 160 70 z "
         transform="translate(-128,-64)" />
    </g>
    <g
       id="sym-7"
       style="display:inline"
       transform="translate(192,64)">
      <path
         id="sym-7-bbox"
         style="fill:none;stroke:none;stroke-width:0"
         d="M 0,0 H 64 V 64 H 0 Z" />
      <path
         id="path12924"
         style="stroke:none;stroke-width:24;stroke-linejoin:miter;stroke-miterlimit:4;stroke-dasharray:none;stroke-opacity:1;paint-order:stroke fill markers;stop-color:#000000"
         d="M 32,58 A 26,26 0 0 0 54.99609,44 H 64 V 20 H 54.99609 A 26,26 0 0 0 32,6 26,26 0 0 0 6,32 26,26 0 0 0 32,58 Z" />
    </g>
    <g
       id="sym-8"
       transform="translate(0,128)">
      <path
         id="sym-8-bbox"
         style="fill:none;stroke:none;stroke-width:0"
         d="M 0,0 H 64 V 64 H 0 Z" />
      <path
         id="rect3451"
         style="stroke-width:23.9999;paint-order:stroke fill markers;stop-color:#000000;stroke:none"
         d="M 20 128 L 20 148 L 0 148 L 0 172 L 20 172 L 20 192 L 44 192 L 44 172 L 64 172 L 64 148 L 44 148 L 44 128 L 20 128 z "
         transform="translate(0,-128)" />
    </g>
    <g
       id="sym-9"
       transform="translate(64,128)">
      <path
         id="sym-9-bbox"
         style="fill:none;stroke:none;stroke-width:0"
         d="M 0,0 H 64 V 64 H 0 Z" />
      <path
         id="rect3640"
         style="stroke-width:24;paint-order:stroke fill markers;stop-color:#000000;stroke:none"
         d="M 64 148 L 64 172 L 84 172 L 84 192 L 108 192 L 108 172 L 108 148 L 84 148 L 64 148 z "
         transform="translate(-64,-128)" />
    </g>
    <g
       id="sym-10"
       transform="translate(128,128)">
      <path
         id="sym-10-bbox"
         style="fill:none;stroke:none;stroke-width:0"
         d="M 0,0 H 64 V 64 H 0 Z" />
      <path
         id="path3769"
         style="stroke-width:24;paint-order:stroke fill markers;stop-color:#000000;stroke:none"
         d="M 64,20 V 44 H 44 V 64 H 20 V 44 20 h 24 z" />
    </g>
    <g
       id="sym-11"
       transform="translate(192,128)">
      <path
         id="sym-11-bbox"
         style="fill:none;stroke:none;stroke-width:0"
         d="M 0,0 H 64 V 64 H 0 Z" />
      <path
         id="rect3843"
         style="stroke-width:23.9999;paint-order:stroke fill markers;stop-color:#000000;stroke:none"
         d="M 0,20 H 64 V 44 H 0 Z" />
    </g>
    <g
       id="sym-12"
       transform="translate(0,192)">
      <path
         id="sym-12-bbox"
         style="fill:none;stroke:none;stroke-width:0"
         d="M 0,0 H 64 V 64 H 0 Z" />
      <path
         id="path3766"
         style="stroke-width:24;paint-order:stroke fill markers;stop-color:#000000;stroke:none"
         d="M 64,44 V 20 H 44 V 0 H 20 v 20 24 h 24 z" />
    </g>
    <g
       id="sym-13"
       transform="translate(64,192)">
      <path
         id="sym-13-bbox"
         style="fill:none;stroke:none;stroke-width:0"
         d="M 0,0 H 64 V 64 H 0 Z" />
      <path
         id="path3763"
         style="stroke-width:24;paint-order:stroke fill markers;stop-color:#000000;stroke:none"
         d="M 0,44 V 20 H 20 V 0 H 44 V 20 44 H 20 Z" />
    </g>
    <g
       id="sym-14"
       transform="translate(128,192)">
      <path
         id="sym-14-bbox"
         style="fill:none;stroke:none;stroke-width:0"
         d="M 0,0 H 64 V 64 H 0 Z" />
      <path
         id="path3944"
         style="stroke-width:23.9999;paint-order:stroke fill markers;stop-color:#000000;stroke:none"
         d="M 44,0 V 64 H 20 V 0 Z" />
    </g>
    <g
       id="sym-15"
       transform="translate(192,192)">
      <path
         id="sym-15-bbox"
         style="fill:none;stroke:none;stroke-width:0"
         d="M 0,0 H 64 V 64 H 0 Z" />
      <path
         id="path12689"
         style="stroke-width:23.9999;paint-order:stroke fill markers;stop-color:#000000;stroke:none"
         d="M 212 192 L 212 201.00391 A 26 26 0 0 0 201.00391 212 L 192 212 L 192 236 L 201.00391 236 A 26 26 0 0 0 212 246.99609 L 212 256 L 236 256 L 236 246.99609 A 26 26 0 0 0 246.99609 236 L 256 236 L 256 212 L 247.05859 212 A 26 26 0 0 0 236 200.94141 L 236 192 L 212 192 z "
         transform="translate(-192,-192)" />
    </g>
  </g>
</svg>
