<?xml version="1.0" encoding="UTF-8"?>
<!-- Created with Inkscape (http://www.inkscape.org/) -->
<svg width="256" height="256" version="1.1" viewBox="0 0 256 256" xmlns="http://www.w3.org/2000/svg" xmlns:xlink="http://www.w3.org/1999/xlink">
 <defs>
  <symbol id="sym-0">
   <path id="sym-0-bbox" d="m0 0h64v64h-64z" fill="none"/>
   <path d="m0 2v4s10.699-0.23297 28.029-0.30664c11.1-0.047189 22.968 2.646e-4 35.971 0.097656v-3.791c-28.001-4.688e-4 -42.66 0.0025-64 0zm35.506 7.3867c-12.451 0.002503-24.093 0.1919-35.506 0.61523v4s10.666-0.72005 27.947-0.84961c11.281-0.084574 23.091 0.14392 36.053 0.52734v-3.998c-9.9803-0.17276-19.559-0.29672-28.494-0.29492zm-0.19726 7.5391c-12.395-0.092958-23.962 0.21768-35.309 1.0781v4s10.52-1.2175 27.699-1.293c11.593-0.050954 23.091 0.4161 36.301 1.209v-4.1562c-10.073-0.43669-19.718-0.77059-28.691-0.83789zm-9.4512 7.6055c-8.9423 0.051439-17.473 0.50423-25.857 1.4746v4s10.281-1.707 27.316-1.6348c11.801 0.050063 23.304 0.87889 36.684 2.1641v-4.3223c-13.734-1.0454-26.418-1.7491-38.143-1.6816zm-0.41797 7.6934c-8.8516-0.030352-17.243 0.50139-25.439 1.7832v4c0 1e-6 9.9691-2.1732 26.826-1.875 12.02 0.21262 23.549 1.4753 37.174 3.3262v-4.4707c-13.99-1.5887-26.817-2.7234-38.561-2.7637zm-0.51172 7.7852c-8.746-0.14941-16.966 0.42985-24.928 2v4s9.6027-2.601 26.256-2.0137c12.256 0.43225 23.814 2.1851 37.744 4.6562v-4.6758c-14.42-2.2214-27.236-3.7646-39.072-3.9668zm-0.57617 7.8809c-8.6297-0.29884-16.66 0.29395-24.352 2.1211v4s9.1994-2.9783 25.631-2.0527c12.516 0.705 24.086 2.989 38.369 6.1152v-4.7871c-14.79-2.8831-27.802-4.9862-39.648-5.3965zm-4.8203 7.8281c-6.905-0.092887-13.365 0.59005-19.531 2.2949v4s8.7693-3.2956 24.969-1.9961c7.0412 0.56482 14.814 1.9045 24.098 3.9824h14.934v-1.1992c-17.014-3.9968-31.546-6.9082-44.469-7.082zm-4.5801 7.9648c-1.6302 0.038388-3.2209 0.15781-4.7949 0.31641h13.496c-2.9889-0.25391-5.8965-0.38245-8.7012-0.31641z" stop-color="#000000" style="paint-order:stroke fill markers"/>
  </symbol>
  <symbol id="sym-1">
   <path id="sym-1-bbox" d="m0 0h64v64h-64z" fill="none"/>
   <path transform="translate(-64)" d="m64 2v3.791c9.6603 0.072356 19.687 0.16379 31.871 0.31445 10.533 0.13024 21.326 0.26855 32.129 0.40039v-4.5059c-26.665 6.25e-4 -35.999 4.688e-4 -64 0zm0 7.6816v3.998c9.5336 0.28203 19.399 0.62028 31.605 1.123 10.844 0.44666 21.596 0.86219 32.395 1.25v-4.8887c-17.331-0.42147-34.884-0.89087-52.141-1.2715-4.1348-0.091196-7.9324-0.14296-11.859-0.21094zm0 8.082v4.1562c9.2882 0.55751 19.294 1.2533 31.332 2.1426 11.038 0.81544 21.838 1.5511 32.668 2.1797v-5.1445c-16.721-0.79583-32.991-1.8202-52.412-2.8242-4.0469-0.20921-7.7472-0.34327-11.588-0.50977zm0 8.4492v4.3223c9.1446 0.87837 19.017 1.9344 31.051 3.2402 11.192 1.2144 22.063 2.2479 32.949 3.0977v-5.3555c-16.894-1.1624-33.379-2.765-52.779-4.4473-3.9282-0.34063-7.496-0.57389-11.221-0.85742zm0 8.7754v4.4707c8.9993 1.2225 18.738 2.6543 30.764 4.3789 11.322 1.6237 22.282 3.0334 33.236 4.082v-5.4961c-17.091-1.4984-33.766-3.7843-53.227-6.2168-3.7833-0.4729-7.189-0.8117-10.773-1.2188zm0 8.9883v4.6758c8.8536 1.5705 18.461 3.3713 30.477 5.5 11.438 2.0264 22.493 3.7332 33.523 4.957v-5.5781c-17.284-1.8007-34.2-4.7005-53.73-7.916-3.5213-0.57974-6.9304-1.1243-10.27-1.6387zm0 9.3105v4.7871c7.9231 1.7341 16.713 3.6871 27.291 5.9258h30.846c-15.498-2.1088-30.995-5.2196-48.416-8.7734-3.3392-0.68121-6.5543-1.3222-9.7207-1.9395zm0 9.5137v1.1992h5.0352c-1.6922-0.40536-3.3912-0.81304-5.0352-1.1992z" stop-color="#000000" style="paint-order:stroke fill markers"/>
  </symbol>
  <symbol id="sym-2">
   <path id="sym-2-bbox" d="m0 0h64v64h-64z" fill="none"/>
   <path transform="translate(-128)" d="m128 2v4.5059c17.01 0.20759 34.203 0.39025 51.658 0.43164 4.4309 0.010506 8.1157-0.049078 12.342-0.056641v-4.8809c-17.331 7.813e-4 -37.335-6.25e-4 -64 0zm0 9.1641v4.8887c16.724 0.60059 33.59 1.0812 51.303 1.0879 4.387 0.0016 8.4975-0.07519 12.697-0.12695v-5.0684c-9.9307 0.05708-20.562 0.03921-32.535-0.11914-10.126-0.13392-20.813-0.40307-31.465-0.66211zm0 9.9336v5.1445c16.67 0.96752 33.425 1.6222 51.322 1.4551 4.3235-0.04038 8.5291-0.13875 12.678-0.26562v-5.3418c-10.277 0.24649-21.201 0.35177-32.727 0.12109-11.159-0.22333-21.277-0.63754-31.273-1.1133zm0 10.42v5.3555c16.767 1.3088 33.571 2.0814 51.652 1.625 4.2063-0.10617 8.3053-0.28952 12.348-0.50977v-5.3477c-10.024 0.42104-20.742 0.63247-32.625 0.38086-11.125-0.23556-21.305-0.81101-31.375-1.5039zm0 10.906v5.4961c16.979 1.6254 33.947 2.3624 52.236 1.5234 4.0022-0.18358 7.9121-0.45038 11.764-0.76562v-5.3652c-9.8995 0.66813-20.612 1.0218-32.281 0.81641-11.177-0.19674-21.521-0.81102-31.719-1.7051zm0 11.107v5.5781c17.277 1.9169 34.494 2.6242 53.016 1.3301 3.7305-0.26065 7.3891-0.59922 10.984-0.99805v-5.4043c-9.7427 0.93303-20.296 1.4977-31.744 1.3809-11.318-0.11554-21.853-0.8029-32.256-1.8867z" stop-color="#000000" style="paint-order:stroke fill markers"/>
  </symbol>
  <symbol id="sym-3">
   <path id="sym-3-bbox" d="m0 0h64v64h-64z" fill="none"/>
   <path transform="translate(-192)" d="m192 2v4.8809c23.566-0.042175 44.744-0.30323 64-0.88086 0 0 0.01-2.6566 0-4 0 0-46.669-7.812e-4 -64 0zm64 8.002s-10.858 0.71155-28.357 1.291c-10.686 0.35385-22.48 0.57669-35.643 0.65234v5.0684c23.636-0.29132 44.611-1.3538 64-3.0117 0 0 0.0102-2.6571 0-4zm0 8.002s-26.87 3.1953-64 4.0859v5.3418c23.725-0.72554 44.711-2.7852 64-5.4277 0 0 0.0104-2.6576 0-4zm0 8.002s-10.778 1.9308-28.252 3.9121c-10.475 1.1878-22.43 2.1633-35.748 2.7227v5.3477c23.875-1.3008 44.977-4.4479 64-7.9824 0 0 0.0105-2.658 0-4zm0 8.002c0 1e-6 -10.552 2.4409-27.873 5.1914-10.453 1.6599-22.497 3.1934-36.127 4.1133v5.3652c24.13-1.975 45.351-6.3283 64-10.67 0 0 0.01-2.6586 0-4zm0 8.002s-10.236 2.8813-27.336 6.4141c-10.418 2.1522-22.682 4.2742-36.664 5.6133v5.4043c24.472-2.7148 45.815-8.3677 64-13.432 0 0 0.01-2.659 0-4zm0 8.002s-9.8478 3.2562-26.676 7.5625c-8.9416 2.2882-19.458 4.6575-31.389 6.4258h24.768c12.256-3.173 23.385-6.7868 33.297-9.9883 0 0 9e-3 -2.6593 0-4zm0 8.002s-6.447 2.4059-17.598 5.9863h12.158c1.7777-0.65489 3.7508-1.3677 5.4394-1.9863 0 0 9e-3 -2.6596 0-4z" stop-color="#000000" style="paint-order:stroke fill markers"/>
  </symbol>
  <symbol id="sym-4">
   <path id="sym-4-bbox" d="m0 0h64v64h-64z" fill="none"/>
   <path transform="translate(0,-64)" d="m10.156 64c-3.508 0.35344-6.8917 0.99379-10.156 2.0156v4s8.3327-3.5423 24.297-1.8457c8.3799 0.89058 17.696 2.9595 29.789 6.3164 3.0971 0.85969 6.594 1.9013 9.9141 2.8711v-4.8906c-15.384-4.1931-28.642-7.4724-40.348-8.4668zm38.91 0c1.8871 0.42238 3.7431 0.8306 5.7715 1.3184 2.8725 0.69074 6.107 1.5465 9.1621 2.3281v-3.6465zm-34.605 7.6816c-5.1399 0.050713-9.9362 0.77152-14.461 2.3359v4s7.8987-3.7147 23.631-1.6094c8.2898 1.1094 17.529 3.4998 29.711 7.2988 3.3176 1.0346 7.0729 2.2667 10.658 3.4297v-4.8672c-19.675-6.0319-35.987-10.722-49.539-10.588zm-0.88867 8.1035c-5.0074-0.001377-9.4956 0.71302-13.572 2.2344v4s7.4789-3.8058 22.988-1.291c8.2056 1.3305 17.369 4.022 29.639 8.2246 3.4093 1.1677 7.4997 2.6093 11.373 3.9707v-4.8789c-12.179-4.1206-23.595-7.9802-33.742-10.197-6.152-1.3441-11.678-2.0611-16.686-2.0625zm-0.45117 8.1328c-4.8913-0.096331-9.2287 0.57148-13.121 2.1035v4s7.0874-3.8156 22.389-0.90039c8.1304 1.549 17.212 4.512 29.568 9.0703 3.6375 1.3419 7.9296 2.946 12.043 4.4844v-4.8535c-12.529-4.5535-24.194-8.8711-34.434-11.424-6.1095-1.5231-11.554-2.3841-16.445-2.4805zm-0.41797 8.1992c-4.784-0.20051-8.9807 0.39802-12.703 1.9062v4s1.7342-0.8787 5.252-1.4512c3.668-0.59692 8.8129-0.69098 16.59 1.0058 8.0672 1.7602 17.064 4.956 29.504 9.8145 3.8372 1.4986 8.3185 3.2498 12.654 4.9453v-4.8066c-12.858-4.9274-24.752-9.6543-35.072-12.525-6.0701-1.6887-11.441-2.6882-16.225-2.8887zm-3.7754 8.1816c-3.2903 0.08008-6.2494 0.63884-8.9277 1.7266v4s1.6616-0.8463 5.0742-1.3379c3.5681-0.51399 8.5856-0.4818 16.287 1.4004 8.0192 1.9598 16.925 5.3485 29.445 10.445 4.0091 1.6321 8.6596 3.5031 13.193 5.3281v-4.7344c-13.156-5.2293-25.256-10.306-35.643-13.469-7.5432-2.2966-13.946-3.4928-19.43-3.3594zm-0.25195 8.2305c-3.219-0.00272-6.0945 0.47847-8.6758 1.498v4s1.604-0.79243 4.9277-1.1875c3.4857-0.41431 8.3925-0.24737 16.031 1.8027 7.0374 1.8887 15.14 5.0775 25.477 9.3574h11.301c-10.891-4.497-21.196-8.8182-29.871-11.658-7.5047-2.4568-13.824-3.808-19.189-3.8125zm-0.20508 8.2734c-3.1608-0.09205-5.9677 0.29838-8.4707 1.2266v4s1.5591-0.72265 4.8125-1.0078c3.4229-0.30004 8.2397 8e-3 15.83 2.2051 0.77772 0.22511 1.6101 0.52315 2.4043 0.77344h12.297c-2.7155-1.066-5.3838-2.0962-7.8809-2.9609-7.4729-2.5879-13.724-4.0829-18.992-4.2363z" stop-color="#000000" style="paint-order:stroke fill markers"/>
  </symbol>
  <symbol id="sym-5">
   <path id="sym-5-bbox" d="m0 0h64v64h-64z" fill="none"/>
   <path transform="translate(-64,-64)" d="m64 64v3.6465c9.3453 2.3909 19.231 5.0084 29.906 7.5391 11.141 2.6412 22.44 4.9263 34.094 6.4824v-5.6289c-3.3334-0.42858-6.6926-0.89975-10.117-1.459-15.483-2.5283-29.787-5.9884-44.734-9.6016-1.4156-0.34217-2.731-0.64739-4.1133-0.97852zm27.291 0c1.0467 0.22151 1.8176 0.40338 2.8984 0.62891 11.543 2.4086 22.7 4.3893 33.811 5.7637v-5.6113c-1.9572-0.23142-3.91-0.51549-5.8633-0.78125zm-27.291 8.4668v4.8906c9.2513 2.7022 19.036 5.6147 29.633 8.3887 11.227 2.9389 22.621 5.4413 34.367 7.1016v-5.5801c-3.2896-0.45257-6.5986-0.94484-9.9766-1.543-15.739-2.7869-30.352-6.7297-45.461-10.91-2.9523-0.81688-5.7591-1.5836-8.5625-2.3477zm0 9.8027v4.8672c9.1618 2.9719 18.848 6.131 29.367 9.1016 11.308 3.1933 22.798 5.8804 34.633 7.6172v-5.502c-3.24-0.46711-6.4952-0.96619-9.8203-1.5898-16.005-3.0018-30.92-7.3771-46.197-12.084-2.8565-0.88008-5.2711-1.5789-7.9824-2.4102zm0 9.7754v4.8789c9.1442 3.2141 18.942 6.637 29.115 9.6758 11.385 3.401 22.965 6.2362 34.885 8.0215v-5.3926c-3.1889-0.4731-6.3876-0.97034-9.6582-1.6074-16.269-3.1691-31.479-7.9186-46.926-13.098-2.5983-0.87118-4.9039-1.6286-7.416-2.4785zm0 9.7773v4.8535c9.0501 3.3847 18.691 6.9343 28.881 10.1 11.455 3.5586 23.12 6.4877 35.119 8.293v-5.2031c-3.1321-0.47072-6.2897-0.99833-9.5-1.6367-16.524-3.286-32.01-8.3421-47.619-13.928-2.4178-0.86519-4.5409-1.6281-6.8809-2.4785zm0 9.709v4.8066c8.9667 3.5064 18.489 7.1413 28.664 10.379 1.4425 0.459 2.9077 0.84665 4.3574 1.2832h19.189c-15.851-3.3642-30.837-8.4027-45.828-14.031-2.2491-0.84444-4.2036-1.6024-6.3828-2.4375zm0 9.5957v4.7344c1.8208 0.73294 3.4086 1.3956 5.2988 2.1387h12.713c-4.04-1.4437-8.0609-2.9519-12.076-4.5098-2.0965-0.81339-3.9014-1.5547-5.9355-2.3633z" stop-color="#000000" style="paint-order:stroke fill markers"/>
  </symbol>
  <symbol id="sym-6">
   <path id="sym-6-bbox" d="m0 0h64v64h-64z" fill="none"/>
   <path transform="translate(-128,-64)" d="m128 64.781v5.6113c17.639 2.182 35.164 2.8121 53.939 1.0098 3.4172-0.32804 6.7621-0.74212 10.061-1.2051v-5.3926c-9.5348 1.1914-19.878 1.9692-31.061 1.9707-11.511 0.001595-22.283-0.73403-32.939-1.9941zm64 10.787c-9.2898 1.428-19.39 2.4016-30.271 2.5391-11.04 0.13946-22.148-0.57939-33.729-2.0684v5.6289c3.3924 0.45297 6.8056 0.86401 10.266 1.1797 15.38 1.4031 30.038 1.2109 44.693-0.59375 3.0736-0.37849 6.0688-0.85743 9.041-1.3594zm0 10.676c-9.0293 1.6353-18.852 2.7956-29.42 3.0762-11.278 0.29944-22.679-0.41539-34.58-2.0527v5.5801c3.5594 0.50309 7.1446 0.94706 10.775 1.2793 15.645 1.4316 30.503 1.0164 45.256-1.2012 2.7128-0.40778 5.3396-0.92538 7.9688-1.4395zm0 10.514c-8.769 1.8106-18.281 3.1529-28.539 3.5762-11.524 0.47551-23.228-0.21681-35.461-1.9805v5.502c3.7308 0.54751 7.491 1.0123 11.297 1.3535 15.909 1.4264 30.971 0.77582 45.82-1.8476 2.3276-0.41121 4.6144-0.88562 6.8828-1.3848zm0 10.318c-8.5099 1.9497-17.714 3.4466-27.662 4.0059-11.769 0.66163-23.774 0.0104-36.338-1.8535v5.3926c3.8982 0.58382 7.8319 1.0566 11.809 1.3984 16.166 1.3897 31.426 0.49504 46.369-2.5156 1.966-0.3961 3.9054-0.83049 5.8223-1.291zm0 10.066c-8.2601 2.0542-17.174 3.6709-26.82 4.3555-12.009 0.85228-24.29 0.30434-37.18-1.6328v5.2031c4.0581 0.61053 8.1533 1.0938 12.293 1.4277 16.409 1.3236 31.858 0.18518 46.891-3.1836 1.6258-0.36434 3.226-0.76333 4.8164-1.1738zm0 9.7598c-1.3846 0.36707-2.7302 0.761-4.1562 1.0977h4.1562z" stop-color="#000000" style="paint-order:stroke fill markers"/>
  </symbol>
  <symbol id="sym-7">
   <path id="sym-7-bbox" d="m0 0h64v64h-64z" fill="none"/>
   <path transform="translate(-192,-64)" d="m197.94 64c-1.938 0.28722-3.9217 0.55304-5.9356 0.80469v5.3926c10.898-1.5296 21.148-3.7237 30.703-6.1973zm40.467 0c-2.5991 0.83457-5.2093 1.674-8.332 2.6289-10.375 3.1729-23.166 6.6485-38.07 8.9395v5.3262c22.824-3.8545 42.408-10.944 58.561-16.895zm17.598 2.0156s-8.9415 3.807-25.131 9.5586c-10.35 3.677-23.438 7.8752-38.869 10.67v5.2422c25.838-5.0521 47.618-14.786 64-21.471 0 0 9e-3 -2.6598 0-4zm0 8.002s-8.4586 3.9866-24.309 10.377c-10.311 4.1573-23.723 9.0661-39.691 12.363v5.2187c26.166-5.7576 48.306-16.934 64-23.959 0 0 8e-3 -2.66 0-4zm0 8.002s-7.9776 4.1058-23.49 11.061c-10.266 4.6025-23.993 10.212-40.51 13.996v5.1367c26.941-6.4728 48.953-18.911 64-26.193 0 0 8e-3 -2.6601 0-4zm0 8.002s-7.504 4.1616-22.701 11.6c-10.214 4.999-24.24 11.279-41.299 15.521v4.9961c27.478-7.092 49.615-20.695 64-28.117 0 0 7e-3 -2.6601 0-4zm0 8.002s-7.0678 4.1628-21.965 11.986c-10.156 5.3339-24.457 12.233-42.035 16.893v1.0977h11.623c22.509-8.0071 40.597-19.592 52.377-25.977 0 0 7e-3 -2.6601 0-4zm0 8.002s-6.6718 4.1114-21.299 12.219c-5.3028 2.9392-11.834 6.4013-19.436 9.7559h9.0332c13.226-6.7018 24.059-13.692 31.701-17.975 0 0 7e-3 -2.6601 0-4zm0 8.002s-6.3268 4.0106-20.721 12.295c-0.91896 0.52889-1.9842 1.1163-2.9805 1.6777h7.1348c6.4758-3.8663 12.09-7.4226 16.566-9.9727 0 0 6e-3 -2.66 0-4zm0 8.002s-3.8916 2.4029-9.8027 5.9707h6.5527c1.0112-0.60531 2.3341-1.4504 3.25-1.9707 0 0 6e-3 -2.6599 0-4z" stop-color="#000000" style="paint-order:stroke fill markers"/>
  </symbol>
  <symbol id="sym-8">
   <path id="sym-8-bbox" d="m0 0h64v64h-64z" fill="none"/>
   <path transform="translate(0,-128)" d="m23.047 128c7.3577 2.3188 15.503 5.6764 26.941 10.525 4.3352 1.8378 9.0889 3.8285 14.012 5.8398v-4.541c-10.365-4.2404-20.042-8.4427-28.656-11.824zm23.389 0c1.399 0.57925 2.4143 0.95588 3.916 1.584 4.1525 1.7369 8.9464 3.6963 13.648 5.6172v-4.6387c-2.1465-0.87175-4.1796-1.7019-6.2637-2.5625zm-41.117 1.0879c-1.921 0.09054-3.6881 0.39961-5.3184 0.94336v4s1.5292-0.63818 4.7324-0.80273c3.3816-0.1737 8.1297 0.28017 15.688 2.5996 8.0041 2.4564 16.557 6.0997 29.309 11.506 4.4154 1.872 9.2553 3.8824 14.271 5.9082v-4.4102c-13.791-5.6128-26.387-11.326-36.838-15.096-8.9384-3.2245-16.081-4.9201-21.844-4.6484zm-0.066406 8.2422c-1.9003 0.01876-3.6454 0.24675-5.252 0.70312v4s1.5146-0.53808 4.6895-0.57422c3.3634-0.0383 8.065 0.55996 15.607 2.9746 8.0615 2.5808 16.443 6.1826 29.281 11.555 4.4641 1.868 9.3522 3.8592 14.422 5.8574v-4.2695c-13.894-5.5544-26.562-11.283-37.033-15.16-8.9192-3.3024-16.014-5.1422-21.715-5.0859zm-0.025391 8.2598c-1.8919-0.05615-3.6281 0.08649-5.2266 0.44532v4s1.5144-0.42683 4.6836-0.33008c3.3696 0.10287 8.0483 0.83823 15.594 3.3184 8.1699 2.6854 16.313 6.1735 29.262 11.449 4.4801 1.8254 9.3803 3.7544 14.461 5.6836v-4.1309c-12.385-4.8414-24.713-10.32-37.115-14.965-8.9109-3.3373-15.982-5.3022-21.658-5.4707zm-2.7129 8.2168c-0.87344 0.0285-1.7106 0.10363-2.5137 0.23047v4s5.7646-1.3021 20.363 3.5469c8.3613 2.7772 16.141 6.0584 29.254 11.188 4.4632 1.7458 9.3343 3.5727 14.383 5.3945v-3.9727c-13.922-5.1654-26.606-10.63-37.082-14.541-10.4-3.8824-18.29-6.0452-24.404-5.8457zm0.23242 8.1465c-0.94183-0.019-1.8572 0.0075-2.7461 0.08594v4s5.8916-0.78728 20.553 4.0547c8.7244 2.8813 15.839 5.808 29.26 10.771 4.4123 1.6319 9.2157 3.3236 14.188 5.0039v-3.8125c-28.861-10.054-47.877-19.834-61.254-20.104zm-2.7461 8.0898v4s6.0888-0.27142 20.848 4.4941c7.4548 2.4071 17.244 6.0705 29.279 10.209 3.1103 1.0696 6.3761 2.1623 9.7617 3.2539h4.1113v-2.3945c-30.764-9.9516-50.063-19.836-64-19.562zm0 8.002v4s6.3528 0.22648 21.244 4.8438c3.6546 1.1332 9.2744 3.0116 15.652 5.1113h11.449c-21.277-6.9687-38.116-13.505-48.346-13.955zm0 8.002v4s3.3277 0.41616 9.8711 1.9531h14.305c-9.8362-3.0233-18.092-5.3507-24.176-5.9531z" stop-color="#000000" style="paint-order:stroke fill markers"/>
  </symbol>
  <symbol id="sym-9">
   <path id="sym-9-bbox" d="m0 0h64v64h-64z" fill="none"/>
   <path transform="translate(-64,-128)" d="m69.299 128c7.3425 2.8862 15.099 5.785 23.17 8.3789 11.576 3.7206 23.393 6.699 35.531 8.459v-4.8086c-3.0435-0.44757-6.1089-0.94922-9.2246-1.5664-12.686-2.513-24.812-6.192-36.764-10.463zm27.723 0c10.127 3.0494 20.418 5.5806 30.979 7.1523v-5.0137c-3.0851-0.46215-6.1934-0.98156-9.3535-1.6133-0.81775-0.16347-1.6225-0.35284-2.4355-0.52539zm-33.021 2.5625v4.6387c8.8305 3.6074 18.182 7.2834 28.301 10.525 11.625 3.7247 23.503 6.6658 35.699 8.3613v-4.584c-3.0095-0.42775-6.0418-0.90971-9.1211-1.5059-17.157-3.3216-33.325-8.838-49.332-15.166-1.9453-0.76904-3.646-1.4975-5.5469-2.2695zm0 9.2617v4.541c8.7147 3.5607 18.158 7.2097 28.158 10.363 11.666 3.6789 23.595 6.544 35.842 8.1484v-4.3496c-2.9847-0.4033-5.9904-0.86001-9.043-1.4297-17.305-3.2296-33.636-8.7363-49.732-15.135-1.7848-0.70946-3.4782-1.4242-5.2246-2.1387zm0 9.0078v4.4102c8.6755 3.5037 18.066 7.0646 28.047 10.123 11.697 3.5843 23.667 6.3337 35.953 7.8223v-4.1074c-2.9692-0.37466-5.9586-0.80148-8.9941-1.3398-17.415-3.0887-33.871-8.5025-50.031-14.879-1.7005-0.67098-3.3097-1.3517-4.9746-2.0293zm0 8.7441v4.2695c8.6472 3.4082 18 6.8442 27.969 9.7734 11.719 3.4433 23.716 6.0407 36.031 7.3906v-3.8613c-2.9644-0.34226-5.9488-0.73533-8.9785-1.2383-17.483-2.9024-34.022-8.1438-50.217-14.406-1.643-0.63533-3.1953-1.2844-4.8047-1.9277zm0 8.4492v4.1309c8.6309 3.2773 17.96 6.5551 27.928 9.3242 11.729 3.2585 23.74 5.6718 36.072 6.8633v-3.6172c-2.9695-0.30634-5.96-0.6614-8.9941-1.125-17.508-2.675-34.087-7.6694-50.287-13.729-1.5753-0.58999-3.1456-1.2327-4.7188-1.8477zm0 8.168v3.9727c8.6267 3.1132 17.949 6.2027 27.926 8.7832 8.2753 2.1404 16.692 3.8599 25.264 5.0508h10.811v-2.1816c-2.9845-0.26723-5.988-0.58331-9.0371-1.0039-17.488-2.4123-34.066-7.0884-50.242-12.859-1.6146-0.57603-3.1388-1.1748-4.7207-1.7617zm0 7.8633v3.8125c6.3394 2.1425 13.074 4.2225 20.178 6.1309h14.074c-10.027-2.2097-19.809-5.0273-29.439-8.2559-1.6832-0.56427-3.193-1.1234-4.8125-1.6875zm0 7.5488v2.3945h7.6484c-0.88064-0.26524-1.7742-0.49555-2.6523-0.76758-1.7493-0.54193-3.317-1.0838-4.9961-1.627z" stop-color="#000000" style="paint-order:stroke fill markers"/>
  </symbol>
  <symbol id="sym-10">
   <path id="sym-10-bbox" d="m0 0h64v64h-64z" fill="none"/>
   <path transform="translate(-128,-128)" d="m187.84 128c-6.8412 1.6151-14.132 2.8737-21.879 3.5332-12.227 1.0409-24.778 0.58081-37.965-1.3945v5.0137c4.2043 0.62577 8.4457 1.1142 12.734 1.4316 16.63 1.2309 32.254-0.14527 47.369-3.834 1.3158-0.3211 2.6049-0.677 3.8965-1.0293v-3.7207zm4.1562 8.3047c-7.8187 2.1762-16.226 3.9462-25.33 4.8418-12.422 1.222-25.217 0.86114-38.67-1.1172v4.8086c4.3311 0.62796 8.7014 1.1097 13.119 1.4023 16.826 1.1144 32.605-0.48646 47.795-4.4492 1.0428-0.27206 2.0588-0.57909 3.0859-0.8711zm0 9.002c-7.6397 2.204-15.848 4.0174-24.727 4.998-12.589 1.3905-25.593 1.1436-39.273-0.80078v4.584c4.4365 0.61675 8.9124 1.0796 13.438 1.3398 16.992 0.97739 32.904-0.82928 48.158-5.0137 0.81345-0.22313 1.6012-0.47398 2.4043-0.70898zm0 8.5664c-7.4953 2.2163-15.547 4.0562-24.24 5.1094-12.724 1.5414-25.896 1.4182-39.76-0.45508v4.3496c4.5158 0.59164 9.0718 1.0247 13.678 1.2461 17.123 0.82321 33.143-1.1671 48.451-5.5156 0.63332-0.1799 1.2442-0.38337 1.8711-0.57031zm0 8.1211c-7.3772 2.2131-15.29 4.0569-23.879 5.1758-12.823 1.6704-26.123 1.6765-40.121-0.0898v4.1074c4.5688 0.55357 9.1778 0.94558 13.838 1.123 17.218 0.65569 33.317-1.4882 48.666-5.9395 0.50669-0.14693 0.99364-0.31357 1.4961-0.46484zm0 7.6387c-7.3098 2.2043-15.153 4.0579-23.656 5.2285-12.884 1.7738-26.264 1.9127-40.344 0.28711v3.8613c4.5925 0.50341 9.2257 0.84668 13.91 0.97656 17.273 0.4789 33.42-1.7873 48.797-6.2774 0.43667-0.1275 0.85894-0.27341 1.293-0.40429zm0 7.1699c-7.2858 2.1881-15.105 4.0467-23.574 5.2598-12.906 1.8486-26.318 2.1195-40.426 0.66406v3.6172c4.5877 0.44326 9.2165 0.73009 13.896 0.81055 17.287 0.29719 33.451-2.0559 48.842-6.5195 0.42567-0.12345 0.83832-0.26404 1.2617-0.39063zm0 6.7188c-7.3174 2.1618-15.172 4.0266-23.637 5.2695-12.889 1.8926-26.283 2.2881-40.363 1.0273v2.1816h40.047c7.7109-1.1298 15.218-2.75 22.547-4.832 0.47343-0.13449 0.93512-0.28746 1.4062-0.42578zm0 6.2988c-2.7113 0.78087-5.5244 1.4928-8.3965 2.1797h8.3965z" stop-color="#000000" style="paint-order:stroke fill markers"/>
  </symbol>
  <symbol id="sym-11">
   <path id="sym-11-bbox" d="m0 0h64v64h-64z" fill="none"/>
   <path transform="translate(-192,-128)" d="m192 128v3.7207c4.016-1.0954 7.8514-2.379 11.623-3.7207zm23.266 0c-6.8697 3.0317-14.693 5.9186-23.266 8.3047v4.6152c11.937-3.3934 22.732-8.0722 32.299-12.92zm17.033 0c-9.8808 5.5678-23.508 12.463-40.299 17.307v4.3984c18.947-5.5442 34.932-14.241 47.434-21.705zm13.898 0c-3.0176 1.8213-5.6411 3.4216-10.441 6.2441-9.9705 5.8626-24.914 14.058-43.756 19.629v4.1641c27.025-8.0594 47.667-22.205 60.75-30.037zm9.8027 2.0312s-5.822 3.6762-19.883 11.984c-6.8241 4.0322-16.403 9.4163-27.646 14.123-5.0958 2.1332-10.627 4.1025-16.471 5.8555v3.9121c29.372-8.8432 51.495-24.938 64-31.875 0 0 6e-3 -2.6597 0-4zm0 8.002s-5.6737 3.4501-19.643 11.605c-6.7647 3.9494-16.341 9.2951-27.574 14.002-5.182 2.1714-10.814 4.1922-16.783 5.9922v3.6719c29.279-8.829 52.524-25.195 64-31.271 0 0 6e-3 -2.6596 0-4zm0 8.002s-5.5993 3.1954-19.529 11.092c-6.7279 3.8138-16.329 9.0466-27.551 13.686-5.2184 2.1573-10.896 4.1811-16.92 5.9902v3.4414c29.114-8.7046 52.806-24.689 64-30.209 0 0 6e-3 -2.6593 0-4zm0 8.002s-5.6054 2.9126-19.551 10.449c-10.098 5.4572-25.245 13.361-44.449 19.035v3.2207c28.724-8.4335 53.099-23.828 64-28.705 0 0 6e-3 -2.6591 0-4zm0 8.002s-5.6861 2.608-19.701 9.6914c-10.107 5.1081-25.212 12.593-44.299 18.09v2.1797h2.6719c27.955-8.3709 49.212-21.18 61.328-25.961 0 0 6e-3 -2.6588 0-4zm0 8.0039s-5.9493 2.3371-19.984 8.8359c-7.5258 3.4848-18.557 8.5398-32.035 13.121h8.5195c19.04-6.9955 33.931-14.724 43.5-17.957 0 0 6e-3 -2.6585 0-4zm0 8.002s-6.1925 2.0121-20.391 7.9024c-4.0349 1.6739-9.1713 3.8008-15.043 6.0527h8.4004c11.15-4.2514 20.294-8.0662 27.033-9.9551 0 0 6e-3 -2.6582 0-4zm0 8.002s-5.8919 1.577-18.193 5.9531h10.342c2.6015-0.69703 5.2138-1.3611 7.8516-1.9531 0 0 7e-3 -2.6579 0-4z" stop-color="#000000" style="paint-order:stroke fill markers"/>
  </symbol>
  <symbol id="sym-12">
   <path id="sym-12-bbox" d="m0 0h64v64h-64z" fill="none"/>
   <path transform="translate(0,-192)" d="m9.8711 192c3.1972 0.75098 6.9229 1.6882 11.865 3.1309 8.7088 2.5422 24.307 7.595 42.264 12.049v-3.3555c-15.106-3.9918-28.557-8.361-39.824-11.824zm27.025 0c7.813 2.5722 16.983 5.5027 27.104 8.3379v-3.4766c-5.4287-1.6024-10.686-3.2342-15.654-4.8613zm22.992 0c1.3251 0.42725 2.7467 0.8446 4.1113 1.2695v-1.2695zm-59.889 2.0488v4s7.0648 1.0926 22.32 5.1914c9.1739 2.4648 24.19 6.7771 41.68 10.516v-3.2402c-27.837-6.4297-50.435-14.53-64-16.467zm0 8.002v4s7.4985 1.4113 22.982 5.1387c9.5594 2.3012 24.038 5.8738 41.018 8.8984v-3.1328c-27.322-5.3564-49.859-12.454-64-14.904zm0 8.002v4s7.8892 1.6044 23.719 4.9043c9.883 2.0603 23.849 4.9092 40.281 7.2441v-3.0332c-26.761-4.2897-49.233-10.32-64-13.115zm0 8.002v4s8.4916 1.695 24.514 4.457c10.098 1.7407 23.744 3.8372 39.486 5.5254v-2.8672c-26.121-3.2659-49.057-8.2731-64-11.115zm0 8.002v4s9.0295 1.6021 25.355 3.7734c10.313 1.3716 23.502 2.8303 38.645 3.9473v-2.7871c-25.809-2.3236-47.752-6.0796-64-8.9336zm0 8.002v4s9.5801 1.3124 26.229 2.8242c10.481 0.95176 23.232 1.8419 37.771 2.4766v-2.791c-25.219-1.4691-46.791-4.0059-64-6.5098zm0 8.002v4s10.13 0.78933 27.115 1.5762c10.603 0.49118 22.939 0.89238 36.885 1.1504v-2.7109c-24.658-0.7492-45.931-2.2167-64-4.0156zm0 8.002v4s46.667-7.8e-4 64 0v-2.666c-23.913-0.20307-45.289-0.63346-64-1.334z" stop-color="#000000" style="paint-order:stroke fill markers"/>
  </symbol>
  <symbol id="sym-13">
   <path id="sym-13-bbox" d="m0 0h64v64h-64z" fill="none"/>
   <path transform="translate(-64,-192)" d="m64 192v1.2695c8.6599 2.6966 18.013 5.3255 28.051 7.4551 11.685 2.4791 23.649 4.1778 35.949 4.8144v-2.9375c-3.0398-0.18087-6.1-0.40824-9.2051-0.73242-16.364-1.7085-31.943-5.2899-47.146-9.8691zm20.178 0c2.5737 0.69142 5.1295 1.3961 7.7891 2.0254 11.713 2.7717 23.708 4.7304 36.033 5.5606v-3.1504c-3.0085-0.22525-6.0361-0.49703-9.1094-0.8711-7.0146-0.85378-13.881-2.0752-20.639-3.5644zm33.012 0c3.5755 0.49679 7.1794 0.89602 10.811 1.1953v-1.1953zm-53.189 4.8613v3.4766c9.1116 2.5526 18.711 4.964 28.184 6.7227 11.642 2.1615 23.559 3.5791 35.816 4.0215v-2.7363c-3.0771-0.13484-6.1753-0.3126-9.3184-0.58398-17.159-1.4816-33.483-4.8686-49.41-9.3418-1.806-0.50722-3.5102-1.0387-5.2715-1.5586zm0 6.9629v3.3555c9.0495 2.2445 18.658 4.3499 28.367 5.8809 11.586 1.8268 23.434 2.9668 35.633 3.2207v-2.6113c-3.1255-0.0881-6.2509-0.17569-9.4434-0.39258-16.964-1.1525-33.126-4.0337-48.916-7.9648-1.9301-0.48052-3.7599-0.99131-5.6406-1.4883zm0 6.6914v3.2402c9.0293 1.9301 18.68 3.717 28.605 4.9961 11.514 1.4838 23.273 2.3486 35.395 2.4277v-2.4629c-3.1665-0.0424-6.3364-0.0913-9.5703-0.25196-16.731-0.83099-32.7-3.1939-48.33-6.5508-2.084-0.4476-4.0706-0.92978-6.0996-1.3984zm0 6.4395v3.1328c9.0427 1.6109 18.761 3.0755 28.898 4.0898 11.92 1.1928 23.551 1.736 35.102 1.6641v-2.3359c-18.826 2e-5 -37.682-1.7447-57.354-5.2676-2.2669-0.40597-4.441-0.85082-6.6465-1.2832zm0 6.2129v3.0332c9.0848 1.291 18.898 2.4298 29.25 3.1777 11.803 0.8528 23.311 1.1636 34.75 0.97461v-2.2656c-18.618 0.21638-37.267-1.0052-56.723-3.7852-2.4772-0.35395-4.8681-0.74856-7.2773-1.1348zm0 6.002v2.8672c9.2257 0.98935 18.988 1.873 29.666 2.3711 11.664 0.5441 23.024 0.65379 34.334 0.38672v-2.2344c-18.384 0.37587-36.803-0.37571-56.01-2.4375-2.7048-0.29036-5.3465-0.62259-7.9902-0.95313zm0 5.8203v2.7871c9.3242 0.68777 19.222 1.2768 30.145 1.5469 11.501 0.28439 22.689 0.16789 33.855-0.12891v-2.1797c-18.126 0.46397-36.304 0.10904-55.223-1.2891-2.9844-0.22055-5.8882-0.47621-8.7773-0.73633zm0 5.5781v2.791c9.4493 0.41245 19.508 0.73792 30.691 0.83007 11.298 0.0931 22.307-0.0679 33.309-0.33593v-2.3535c-17.852 0.46629-35.783 0.46255-54.369-0.35938-3.3496-0.14813-6.4073-0.38448-9.6309-0.57226zm0 5.5078v2.7109c9.6023 0.17764 19.848 0.29791 31.309 0.28906 11.046-9e-3 21.863-0.13261 32.691-0.30469v-2.498c-17.566 0.36791-35.264 0.49175-53.453 0.12304-3.6635-0.07426-7.0317-0.21351-10.547-0.32031zm64 5.2734c-17.303 0.15482-34.764 0.25725-52.486 0.18164-4.1412-0.01767-7.552-0.10112-11.514-0.13477v2.666c17.333 7.8e-4 37.334-6.3e-4 64 0z" stop-color="#000000" style="paint-order:stroke fill markers"/>
  </symbol>
  <symbol id="sym-14">
   <path id="sym-14-bbox" d="m0 0h64v64h-64z" fill="none"/>
   <path transform="translate(-128,-192)" d="m128 192v1.1953c4.5543 0.37538 9.1506 0.6018 13.797 0.63281 9.0399 0.0604 17.769-0.5854 26.25-1.8281zm55.604 0c-4.9464 1.183-10.042 2.2646-15.445 3.0664-12.831 1.9041-26.16 2.4172-40.158 1.3691v3.1504c4.4936 0.30263 9.0284 0.46578 13.613 0.44922 17.189-0.0621 33.288-2.4784 48.662-6.6953 0.59318-0.16269 1.1372-0.35839 1.7246-0.52539v-0.81445zm8.3965 3.707c-7.5313 2.0992-15.585 3.9496-24.184 5.2207-12.735 1.8824-25.952 2.4988-39.816 1.6738v2.9375c4.4075 0.22814 8.8558 0.32607 13.354 0.26563 17.078-0.2295 33.096-2.6147 48.439-6.6152 0.75848-0.19776 1.4576-0.43085 2.207-0.63476zm0 5.5859c-7.6968 2.0379-15.915 3.8554-24.656 5.123-12.602 1.8275-25.662 2.5292-39.344 1.9297v2.7363c4.2993 0.15518 8.6355 0.20044 13.023 0.10156 16.928-0.38147 32.833-2.6948 48.129-6.4219 0.97746-0.23818 1.8847-0.51489 2.8477-0.76172zm0 5.3281c-7.9061 1.9537-16.336 3.718-25.246 4.9648-12.428 1.7391-25.307 2.4632-38.754 2.084v2.6113c4.1704 0.0868 8.3799 0.0756 12.637-0.0547 16.739-0.51218 32.502-2.7153 47.734-6.1172 1.2192-0.27364 2.418-0.60667 3.6289-0.9043zm0 5.1504c-8.1606 1.8415-16.846 3.524-25.938 4.7285-12.232 1.6206-24.88 2.3932-38.062 2.2168v2.4629c4.0266 0.0263 8.0926-0.0343 12.203-0.1875 16.516-0.61552 32.108-2.664 47.262-5.6953 1.5507-0.3102 3.0167-0.65451 4.5352-0.97852zm0 5.0586c-8.4635 1.6967-17.453 3.2645-26.715 4.4004-12.563 1.5408-24.917 2.2754-37.285 2.2754v2.3359c19.391-0.1207 38.552-1.9796 58.457-5.4473 1.8911-0.32943 3.696-0.68691 5.543-1.0312zm0 5c-8.8821 1.5293-18.107 2.9869-27.553 4.0293-12.278 1.355-24.357 2.088-36.447 2.2285v2.2656c18.959-0.31332 37.734-1.9996 57.373-4.873 2.3062-0.33744 4.38-0.71452 6.627-1.0664zm0 5.166c-9.3521 1.315-19.016 2.5824-28.43 3.4824-11.975 1.1448-23.766 1.8407-35.57 2.082v2.2344c18.515-0.43719 36.893-1.8914 56.244-4.1543 2.6846-0.31393 5.1422-0.65003 7.7559-0.9746zm0 5.4121c-9.1434 0.98084-18.799 1.9549-29.314 2.7793-11.658 0.91392-23.162 1.5332-34.686 1.8281v2.1797c18.069-0.48023 36.063-1.5708 55.102-3.2226 3.4692-0.301 5.6817-0.52991 8.8984-0.82422zm0 5.6484c-9.4232 0.69758-19.392 1.4071-30.178 2.041-11.329 0.6659-22.563 1.1082-33.822 1.4023v2.3535c17.651-0.42996 35.274-1.2168 53.984-2.2754 3.8258-0.21644 6.4619-0.36539 10.016-0.57226zm0 6.0254c-9.7724 0.40982-19.843 0.83765-30.98 1.248-10.994 0.40511-21.987 0.71228-33.02 0.94336v2.498c17.279-0.27458 34.591-0.70035 52.936-1.2012 4.1498-0.11329 7.1973-0.1806 11.064-0.28515zm0 6.5488c-9.7697 0.12669-16.928 0.19234-31.688 0.38086-10.627 0.13573-21.466 0.24084-32.312 0.33789v2.7129c26.666 6.3e-4 36 4.7e-4 64 0z" stop-color="#000000" style="paint-order:stroke fill markers"/>
  </symbol>
  <symbol id="sym-15">
   <path id="sym-15-bbox" d="m0 0h64v64h-64z" fill="none"/>
   <path transform="translate(-192,-192)" d="m192 192v0.81445c0.91016-0.25873 1.7756-0.54606 2.6719-0.81445zm11.98 0c-3.8063 1.2938-7.7886 2.5386-11.98 3.707v2.8477c7.2755-1.9797 14.125-4.2126 20.5-6.5547zm16.586 0c-8.078 3.0981-17.716 6.42-28.566 9.293v2.707c13.936-3.5719 26.385-7.9651 36.967-12zm17.24 0c-0.96612 0.34369-1.6732 0.57651-2.7227 0.95703-9.4984 3.4442-24.715 9.1248-43.084 13.664v2.584c19.078-4.6891 37.204-12.129 56.148-17.205zm18.193 2.0488s-6.8787 1.3602-21.551 5.8809c-9.3718 2.8876-24.502 7.792-42.449 11.842v2.5469c27.62-5.8937 49.901-13.836 64-16.27 0 0 7e-3 -2.6576 0-4zm0 8.002s-7.303 1.0495-22.277 4.8418c-9.1776 2.3243-24.228 6.4304-41.723 9.9375v2.5332c27.043-5.0418 49.331-11.458 64-13.312 0 0 7e-3 -2.6574 0-4zm0 8.002s-7.7742 0.75894-23.086 3.8184c-8.8259 1.7635-23.945 5.0372-40.914 7.959v2.584c26.373-4.13 48.752-9.0354 64-10.361 0 0 8e-3 -2.6571 0-4zm0 8.002s-8.2794 0.50278-23.955 2.8457c-8.2369 1.2311-23.449 3.7623-40.045 6.0957v2.6699c25.759-3.199 48.129-6.7428 64-7.6113 0 0 8e-3 -2.6569 0-4zm0 8.002s-8.8072 0.28716-24.863 1.9531c-10.142 1.0524-23.658 2.738-39.137 4.3984v2.7402c26.021-2.3808 45.408-4.5351 64-5.0918 0 0 8e-3 -2.6567 0-4zm0 8.002s-9.3483 0.12356-25.789 1.1777c-10.11 0.64827-23.294 1.716-38.211 2.8203v2.9492c25.186-1.4662 45.044-2.7078 64-2.9473 0 0 9e-3 -2.6565 0-4zm0 8.002s-9.8886 0.0189-26.705 0.55468c-9.9971 0.31848-23.039 0.86895-37.295 1.4668v3.2031c24.458-0.66129 44.639-1.1721 64-1.2246 0 0 9e-3 -2.6564 0-4zm0 8.002s-10.413-0.0123-27.582 0.12891c-11.748 0.0966-25.19 0.29385-36.418 0.43945v3.4316c28-4.7e-4 42.665 2e-3 64 0z" stop-color="#000000" style="paint-order:stroke fill markers"/>
  </symbol>
 </defs>
 <g>
  <use xlink:href="#sym-0"/>
  <use transform="translate(64)" xlink:href="#sym-1"/>
  <use transform="translate(128)" xlink:href="#sym-2"/>
  <use transform="translate(192)" xlink:href="#sym-3"/>
  <use transform="translate(0,64)" xlink:href="#sym-4"/>
  <use transform="translate(64,64)" xlink:href="#sym-5"/>
  <use transform="translate(128,64)" xlink:href="#sym-6"/>
  <use transform="translate(192,64)" xlink:href="#sym-7"/>
  <use transform="translate(0,128)" xlink:href="#sym-8"/>
  <use transform="translate(64,128)" xlink:href="#sym-9"/>
  <use transform="translate(128,128)" xlink:href="#sym-10"/>
  <use transform="translate(192,128)" xlink:href="#sym-11"/>
  <use transform="translate(0,192)" xlink:href="#sym-12"/>
  <use transform="translate(64,192)" xlink:href="#sym-13"/>
  <use transform="translate(128,192)" xlink:href="#sym-14"/>
  <use transform="translate(192,192)" xlink:href="#sym-15"/>
 </g>
</svg>
