<?xml version="1.0" encoding="UTF-8" standalone="no"?>
<!-- Created with Inkscape (http://www.inkscape.org/) -->

<svg
   width="256"
   height="256"
   viewBox="0 0 256 256"
   version="1.1"
   id="svg6439"
   inkscape:version="1.1.1 (3bf5ae0d25, 2021-09-20, custom)"
   sodipodi:docname="x.svg"
   xmlns:inkscape="http://www.inkscape.org/namespaces/inkscape"
   xmlns:sodipodi="http://sodipodi.sourceforge.net/DTD/sodipodi-0.dtd"
   xmlns="http://www.w3.org/2000/svg"
   xmlns:svg="http://www.w3.org/2000/svg">
  <sodipodi:namedview
     id="namedview6441"
     pagecolor="#cbcbcb"
     bordercolor="#ffffff"
     borderopacity="1"
     inkscape:pageshadow="0"
     inkscape:pageopacity="0"
     inkscape:pagecheckerboard="1"
     inkscape:document-units="px"
     showgrid="false"
     units="px"
     width="512px"
     inkscape:zoom="3.0976562"
     inkscape:cx="128"
     inkscape:cy="128"
     inkscape:window-width="1920"
     inkscape:window-height="1050"
     inkscape:window-x="0"
     inkscape:window-y="28"
     inkscape:window-maximized="1"
     inkscape:current-layer="layer1"
     borderlayer="true" />
  <defs
     id="defs6436">
    <inkscape:path-effect
       effect="lattice2"
       gridpoint0="0,2"
       gridpoint1="256,2"
       gridpoint2="0,254.062"
       gridpoint3="256,254.062"
       gridpoint4="64,2"
       gridpoint5="192,2"
       gridpoint6="64,254.062"
       gridpoint7="192,254.062"
       gridpoint8x9="128,2"
       gridpoint10x11="128,254.062"
       gridpoint12="0,65.0155"
       gridpoint13="256,65.0155"
       gridpoint14="0,191.0465"
       gridpoint15="256,191.0465"
       gridpoint16="68.059397,46.702448"
       gridpoint17="179.62396,96.023726"
       gridpoint18="41.565997,230.83859"
       gridpoint19="213.09692,190.50676"
       gridpoint20x21="128,65.0155"
       gridpoint22x23="128,191.0465"
       gridpoint24x26="0,128.031"
       gridpoint25x27="256,128.031"
       gridpoint28x30="47.567919,104.07874"
       gridpoint29x31="212.79559,134.76894"
       gridpoint32x33x34x35="130.61475,160.9209"
       id="path-effect3674"
       is_visible="true"
       lpeversion="1"
       horizontal_mirror="false"
       vertical_mirror="false"
       perimetral="false"
       live_update="true" />
  </defs>
  <g
     inkscape:label="Layer 1"
     inkscape:groupmode="layer"
     id="layer1"
     style="display:inline">
    <g
       id="sym-0">
      <path
         id="sym-0-bbox"
         style="fill:none;stroke:none;stroke-width:0"
         d="M 0,0 H 64 V 64 H 0 Z" />
      <path
         id="path4554"
         style="stroke:none;stroke-width:24;paint-order:stroke fill markers;stop-color:#000000"
         d="M 0 2 L 0 6 C -2.3684758e-15 6 10.69888 5.7670348 28.029297 5.6933594 C 39.129408 5.6461703 50.997197 5.693624 64 5.7910156 L 64 2 C 35.998775 1.9995312 21.339869 2.0025 0 2 z M 35.505859 9.3867188 C 23.055233 9.3892218 11.412496 9.5786231 0 10.001953 L 0 14.001953 C -4.7369516e-15 14.001953 10.66639 13.281902 27.947266 13.152344 C 39.22805 13.06777 51.03875 13.296261 64 13.679688 L 64 9.6816406 C 54.01968 9.5088848 44.440855 9.3849225 35.505859 9.3867188 z M 35.308594 16.925781 C 22.913626 16.832823 11.346661 17.14346 0 18.003906 L 0 22.003906 C -2.3684758e-15 22.003906 10.519741 20.786442 27.699219 20.710938 C 39.292667 20.659984 50.790339 21.127033 64 21.919922 L 64 17.763672 C 53.926693 17.32698 44.282176 16.99308 35.308594 16.925781 z M 25.857422 24.53125 C 16.915077 24.582689 8.384199 25.03548 0 26.005859 L 0 30.005859 C -4.7369516e-15 30.005859 10.281088 28.298823 27.316406 28.371094 C 39.116979 28.421157 50.620192 29.249988 64 30.535156 L 64 26.212891 C 50.266447 25.167472 37.581569 24.463809 25.857422 24.53125 z M 25.439453 32.224609 C 16.587868 32.194257 8.1968186 32.725995 0 34.007812 L 0 38.007812 C 2.3684758e-15 38.007813 9.969055 35.834634 26.826172 36.132812 C 38.846283 36.345432 50.375157 37.60816 64 39.458984 L 64 34.988281 C 50.010055 33.39957 37.183175 32.264879 25.439453 32.224609 z M 24.927734 40.009766 C 16.181724 39.860359 7.9617607 40.439618 0 42.009766 L 0 46.009766 C 2.3684758e-15 46.009766 9.6026591 43.408779 26.255859 43.996094 C 38.512175 44.428342 50.06966 46.181237 64 48.652344 L 64 43.976562 C 49.580022 41.755185 36.763665 40.211957 24.927734 40.009766 z M 24.351562 47.890625 C 15.721876 47.591782 7.6918695 48.184571 0 50.011719 L 0 54.011719 C -2.3684758e-15 54.011719 9.1993712 51.033457 25.630859 51.958984 C 38.147211 52.663985 49.716508 54.948006 64 58.074219 L 64 53.287109 C 49.209532 50.403962 36.198184 48.300869 24.351562 47.890625 z M 19.53125 55.71875 C 12.626242 55.625863 6.1658281 56.308802 0 58.013672 L 0 62.013672 C 2.3684758e-15 62.013672 8.7692748 58.718117 24.96875 60.017578 C 32.009991 60.5824 39.782813 61.922125 49.066406 64 L 64 64 L 64 62.800781 C 46.985554 58.80402 32.453723 55.892585 19.53125 55.71875 z M 14.951172 63.683594 C 13.320934 63.721982 11.730298 63.841408 10.15625 64 L 23.652344 64 C 20.663409 63.746086 17.755892 63.617549 14.951172 63.683594 z " />
    </g>
    <g
       id="sym-1"
       transform="translate(64)">
      <path
         id="sym-1-bbox"
         style="fill:none;stroke:none;stroke-width:0"
         d="M 0,0 H 64 V 64 H 0 Z" />
      <path
         id="path4580"
         style="stroke:none;stroke-width:24;paint-order:stroke fill markers;stop-color:#000000"
         d="M 64 2 L 64 5.7910156 C 73.66034 5.8633721 83.687026 5.9548017 95.871094 6.1054688 C 106.40369 6.2357138 117.19719 6.3740229 128 6.5058594 L 128 2 C 101.33497 2.000625 92.001225 2.0004688 64 2 z M 64 9.6816406 L 64 13.679688 C 73.5336 13.961716 83.399284 14.299973 95.605469 14.802734 C 106.44963 15.249395 117.20109 15.66492 128 16.052734 L 128 11.164062 C 110.66911 10.742588 93.116085 10.273188 75.859375 9.8925781 C 71.72458 9.801382 67.926931 9.7496144 64 9.6816406 z M 64 17.763672 L 64 21.919922 C 73.288169 22.477429 83.293619 23.173192 95.332031 24.0625 C 106.37046 24.877936 117.17009 25.613642 128 26.242188 L 128 21.097656 C 111.27863 20.301828 95.00933 19.277436 75.587891 18.273438 C 71.540942 18.064229 67.840682 17.930171 64 17.763672 z M 64 26.212891 L 64 30.535156 C 73.144617 31.413522 83.016683 32.469571 95.050781 33.775391 C 106.24255 34.98981 117.11386 36.023304 128 36.873047 L 128 31.517578 C 111.10641 30.355193 94.62099 28.752582 75.220703 27.070312 C 71.292458 26.72968 67.72474 26.496423 64 26.212891 z M 64 34.988281 L 64 39.458984 C 72.99934 40.681472 82.737947 42.113242 94.763672 43.837891 C 106.08548 45.461588 117.0454 46.871272 128 47.919922 L 128 42.423828 C 110.90889 40.92542 94.233717 38.639507 74.773438 36.207031 C 70.990117 35.734128 67.584436 35.395333 64 34.988281 z M 64 43.976562 L 64 48.652344 C 72.85356 50.222879 82.461483 52.023618 94.476562 54.152344 C 105.91432 56.178786 116.96922 57.885553 128 59.109375 L 128 53.53125 C 110.71616 51.730505 93.800072 48.830759 74.269531 45.615234 C 70.748263 45.03549 67.339121 44.490949 64 43.976562 z M 64 53.287109 L 64 58.074219 C 71.923128 59.808345 80.712784 61.761356 91.291016 64 L 122.13672 64 C 106.6383 61.891235 91.141473 58.780438 73.720703 55.226562 C 70.38148 54.545354 67.166423 53.904349 64 53.287109 z M 64 62.800781 L 64 64 L 69.035156 64 C 67.342939 63.594635 65.643985 63.18696 64 62.800781 z "
         transform="translate(-64)" />
    </g>
    <g
       id="sym-2"
       transform="translate(128)">
      <path
         id="sym-2-bbox"
         style="fill:none;stroke:none;stroke-width:0"
         d="M 0,0 H 64 V 64 H 0 Z" />
      <path
         id="path4604"
         style="stroke:none;stroke-width:24;paint-order:stroke fill markers;stop-color:#000000"
         d="M 128 2 L 128 6.5058594 C 145.00999 6.7134478 162.20294 6.8961119 179.6582 6.9375 C 184.08908 6.948006 187.77387 6.8884225 192 6.8808594 L 192 2 C 174.66871 2.0007813 154.66503 1.999375 128 2 z M 128 11.164062 L 128 16.052734 C 144.72376 16.653324 161.59033 17.133967 179.30273 17.140625 C 183.68971 17.142274 187.80027 17.065436 192 17.013672 L 192 11.945312 C 182.06932 12.002392 171.43815 11.984525 159.46484 11.826172 C 149.33866 11.692248 138.65164 11.423103 128 11.164062 z M 128 21.097656 L 128 26.242188 C 144.67045 27.209705 161.42476 27.864421 179.32227 27.697266 C 183.6458 27.656886 187.85141 27.558512 192 27.431641 L 192 22.089844 C 181.72326 22.336336 170.79933 22.441612 159.27344 22.210938 C 148.11476 21.987612 137.99596 21.573399 128 21.097656 z M 128 31.517578 L 128 36.873047 C 144.76723 38.181852 161.57066 38.954458 179.65234 38.498047 C 183.8586 38.391874 187.95768 38.208523 192 37.988281 L 192 32.640625 C 181.97568 33.061663 171.25814 33.273094 159.375 33.021484 C 148.24985 32.785924 138.0702 32.210472 128 31.517578 z M 128 42.423828 L 128 47.919922 C 144.9791 49.545278 161.94684 50.28232 180.23633 49.443359 C 184.23849 49.259775 188.1484 48.992983 192 48.677734 L 192 43.3125 C 182.10053 43.980627 171.38776 44.334315 159.71875 44.128906 C 148.54196 43.932161 138.1978 43.317888 128 42.423828 z M 128 53.53125 L 128 59.109375 C 145.27743 61.026238 162.49351 61.733596 181.01562 60.439453 C 184.74608 60.178805 188.40473 59.840238 192 59.441406 L 192 54.037109 C 182.25726 54.970142 171.7041 55.534838 160.25586 55.417969 C 148.93782 55.302429 138.40271 54.615073 128 53.53125 z "
         transform="translate(-128)" />
    </g>
    <g
       id="sym-3"
       transform="translate(192)">
      <path
         id="sym-3-bbox"
         style="fill:none;stroke:none;stroke-width:0"
         d="M 0,0 H 64 V 64 H 0 Z" />
      <path
         id="path4628"
         style="stroke:none;stroke-width:24;paint-order:stroke fill markers;stop-color:#000000"
         d="M 192 2 L 192 6.8808594 C 215.5664 6.8386848 236.74371 6.5776329 256 6 C 256 6 256.01 3.3434119 256 2 C 256 2 209.33129 1.9992188 192 2 z M 256 10.001953 C 256 10.001953 245.14222 10.713505 227.64258 11.292969 C 216.95623 11.646821 205.16291 11.869655 192 11.945312 L 192 17.013672 C 215.63569 16.722347 236.61133 15.659877 256 14.001953 C 256 14.001953 256.0102 11.344812 256 10.001953 z M 256 18.003906 C 256 18.003906 229.13035 21.199254 192 22.089844 L 192 27.431641 C 215.72453 26.706101 236.71109 24.6464 256 22.003906 C 256 22.003906 256.0104 19.346286 256 18.003906 z M 256 26.005859 C 256 26.005859 245.22224 27.936613 227.74805 29.917969 C 217.27261 31.105752 205.3184 32.08123 192 32.640625 L 192 37.988281 C 215.87505 36.687472 236.97739 33.540415 256 30.005859 C 256 30.005859 256.0105 27.34783 256 26.005859 z M 256 34.007812 C 256 34.007813 245.44842 36.44867 228.12695 39.199219 C 217.67361 40.859149 205.63 42.392595 192 43.3125 L 192 48.677734 C 216.12995 46.702726 237.35054 42.349457 256 38.007812 C 256 38.007812 256.01 35.349206 256 34.007812 z M 256 42.009766 C 256 42.009766 245.76448 44.891076 228.66406 48.423828 C 218.24631 50.576018 205.98237 52.698061 192 54.037109 L 192 59.441406 C 216.47227 56.726642 237.81506 51.073727 256 46.009766 C 256 46.009766 256.01 43.350783 256 42.009766 z M 256 50.011719 C 256 50.011719 246.15218 53.267898 229.32422 57.574219 C 220.38261 59.8624 209.86654 62.231758 197.93555 64 L 222.70312 64 C 234.9595 60.827037 246.08827 57.213244 256 54.011719 C 256 54.011719 256.009 51.352413 256 50.011719 z M 256 58.013672 C 256 58.013672 249.55297 60.419565 238.40234 64 L 250.56055 64 C 252.33829 63.345107 254.31134 62.632267 256 62.013672 C 256 62.013672 256.009 59.354097 256 58.013672 z "
         transform="translate(-192)" />
    </g>
    <g
       id="sym-4"
       transform="translate(0,64)">
      <path
         id="sym-4-bbox"
         style="fill:none;stroke:none;stroke-width:0"
         d="M 0,0 H 64 V 64 H 0 Z" />
      <path
         id="path4652"
         style="stroke:none;stroke-width:24;paint-order:stroke fill markers;stop-color:#000000"
         d="M 10.15625 64 C 6.6482534 64.353445 3.2645505 64.99379 0 66.015625 L 0 70.015625 C 0 70.015625 8.3326827 66.473315 24.296875 68.169922 C 32.676749 69.0605 41.992444 71.129411 54.085938 74.486328 C 57.183034 75.346021 60.679892 76.387646 64 77.357422 L 64 72.466797 C 48.615706 68.273693 35.357854 64.994398 23.652344 64 L 10.15625 64 z M 49.066406 64 C 50.953513 64.422377 52.80951 64.830598 54.837891 65.318359 C 57.710376 66.009102 60.944901 66.864879 64 67.646484 L 64 64 L 49.066406 64 z M 14.460938 71.681641 C 9.3210141 71.732354 4.524693 72.453163 0 74.017578 L 0 78.017578 C 2.3684758e-15 78.017578 7.8986868 74.302884 23.630859 76.408203 C 31.920669 77.517567 41.160033 79.90805 53.341797 83.707031 C 56.659382 84.741647 60.414676 85.973703 64 87.136719 L 64 82.269531 C 44.325364 76.237609 28.013092 71.547928 14.460938 71.681641 z M 13.572266 79.785156 C 8.5648352 79.783779 4.0766212 80.498181 0 82.019531 L 0 86.019531 C -2.3684758e-15 86.019531 7.478886 82.213692 22.988281 84.728516 C 31.193887 86.059043 40.357121 88.750565 52.626953 92.953125 C 56.036267 94.120855 60.126628 95.562391 64 96.923828 L 64 92.044922 C 51.820756 87.924372 40.405433 84.064677 30.257812 81.847656 C 24.105825 80.503588 18.579696 79.786533 13.572266 79.785156 z M 13.121094 87.917969 C 8.2297788 87.821638 3.8923569 88.489446 0 90.021484 L 0 94.021484 C -4.7369516e-15 94.021484 7.0874287 90.205889 22.388672 93.121094 C 30.519056 94.670101 39.600875 97.633103 51.957031 102.19141 C 55.594579 103.53333 59.886593 105.1374 64 106.67578 L 64 101.82227 C 51.471018 97.268759 39.806071 92.95114 29.566406 90.398438 C 23.456901 88.875365 18.012409 88.014299 13.121094 87.917969 z M 12.703125 96.117188 C 7.9191701 95.916681 3.7224744 96.51521 0 98.023438 L 0 102.02344 C -5.9211895e-16 102.02344 1.7341761 101.14474 5.2519531 100.57227 C 8.9199637 99.975345 14.064893 99.881293 21.841797 101.57812 C 29.909008 103.3383 38.906023 106.53413 51.345703 111.39258 C 55.182868 112.89122 59.66419 114.64239 64 116.33789 L 64 111.53125 C 51.142165 106.60386 39.247583 101.87691 28.927734 99.005859 C 22.857651 97.317124 17.48708 96.317694 12.703125 96.117188 z M 8.9277344 104.29883 C 5.6374696 104.37891 2.6782982 104.93767 0 106.02539 L 0 110.02539 C 0 110.02539 1.6616314 109.17909 5.0742188 108.6875 C 8.642315 108.17351 13.659839 108.2057 21.361328 110.08789 C 29.380547 112.04772 38.286686 115.43635 50.806641 120.5332 C 54.815726 122.16529 59.466195 124.03626 64 125.86133 L 64 121.12695 C 50.8441 115.89767 38.744207 110.82055 28.357422 107.6582 C 20.814213 105.36161 14.411509 104.16535 8.9277344 104.29883 z M 8.6757812 112.5293 C 5.4568098 112.52658 2.5812587 113.00777 0 114.02734 L 0 118.02734 C 0 118.02734 1.603974 117.23491 4.9277344 116.83984 C 8.4134001 116.42553 13.320241 116.59247 20.958984 118.64258 C 27.996347 120.53129 36.098942 123.72005 46.435547 128 L 57.736328 128 C 46.845304 123.50297 36.540669 119.18181 27.865234 116.3418 C 20.360562 113.88505 14.040734 112.53382 8.6757812 112.5293 z M 8.4707031 120.80273 C 5.3098809 120.71068 2.5030004 121.10111 0 122.0293 L 0 126.0293 C 0 126.0293 1.5591162 125.30665 4.8125 125.02148 C 8.2353986 124.72144 13.052234 125.02962 20.642578 127.22656 C 21.420297 127.45167 22.252699 127.74971 23.046875 128 L 35.34375 128 C 32.628215 126.93405 29.96 125.90381 27.462891 125.03906 C 19.990011 122.45119 13.73874 120.95616 8.4707031 120.80273 z "
         transform="translate(0,-64)" />
    </g>
    <g
       id="sym-5"
       transform="translate(64,64)">
      <path
         id="sym-5-bbox"
         style="fill:none;stroke:none;stroke-width:0"
         d="M 0,0 H 64 V 64 H 0 Z" />
      <path
         id="path4676"
         style="stroke:none;stroke-width:24;paint-order:stroke fill markers;stop-color:#000000"
         d="M 64 64 L 64 67.646484 C 73.345339 70.037361 83.231154 72.654897 93.90625 75.185547 C 105.04764 77.826737 116.34595 80.111849 128 81.667969 L 128 76.039062 C 124.66661 75.610482 121.30745 75.139316 117.88281 74.580078 C 102.40016 72.051786 88.096187 68.591649 73.148438 64.978516 C 71.732876 64.63635 70.417463 64.331127 69.035156 64 L 64 64 z M 91.291016 64 C 92.337705 64.221508 93.108663 64.403382 94.189453 64.628906 C 105.73251 67.037556 116.88904 69.018176 128 70.392578 L 128 64.78125 C 126.04282 64.549826 124.08996 64.265764 122.13672 64 L 91.291016 64 z M 64 72.466797 L 64 77.357422 C 73.25129 80.059647 83.035625 82.972134 93.632812 85.746094 C 104.86003 88.684974 116.25355 91.187383 128 92.847656 L 128 87.267578 C 124.71043 86.815004 121.40135 86.322742 118.02344 85.724609 C 102.28467 82.937722 87.670941 78.994891 72.5625 74.814453 C 69.610218 73.99757 66.803432 73.230893 64 72.466797 z M 64 82.269531 L 64 87.136719 C 73.1618 90.108644 82.847871 93.267739 93.367188 96.238281 C 104.67534 99.431583 116.16517 102.11865 128 103.85547 L 128 98.353516 C 124.75999 97.886406 121.50481 97.387325 118.17969 96.763672 C 102.17512 93.761886 87.259826 89.386568 71.982422 84.679688 C 69.125883 83.799604 66.711352 83.100787 64 82.269531 z M 64 92.044922 L 64 96.923828 C 73.144187 100.13789 82.942347 103.5608 93.115234 106.59961 C 104.50049 110.00056 116.07975 112.83586 128 114.62109 L 128 109.22852 C 124.81112 108.75542 121.61244 108.25818 118.3418 107.62109 C 102.07242 104.452 86.862553 99.702507 71.416016 94.523438 C 68.817719 93.652254 66.512125 92.894838 64 92.044922 z M 64 101.82227 L 64 106.67578 C 73.050139 110.06045 82.691417 113.61004 92.880859 116.77539 C 104.33631 120.33402 116.0008 123.26311 128 125.06836 L 128 119.86523 C 124.86787 119.39451 121.71026 118.8669 118.5 118.22852 C 101.97579 114.94256 86.490082 109.88642 70.880859 104.30078 C 68.463054 103.43559 66.339912 102.67268 64 101.82227 z M 64 111.53125 L 64 116.33789 C 72.966663 119.84428 82.488978 123.47919 92.664062 126.7168 C 94.106603 127.1758 95.571724 127.56345 97.021484 128 L 116.21094 128 C 100.35963 124.63584 85.373821 119.59729 70.382812 113.96875 C 68.133732 113.12431 66.17926 112.36639 64 111.53125 z M 64 121.12695 L 64 125.86133 C 65.820755 126.59427 67.408604 127.25698 69.298828 128 L 82.011719 128 C 77.971716 126.5563 73.950835 125.04808 69.935547 123.49023 C 67.839055 122.67684 66.03412 121.93549 64 121.12695 z "
         transform="translate(-64,-64)" />
    </g>
    <g
       id="sym-6"
       transform="translate(128,64)">
      <path
         id="sym-6-bbox"
         style="fill:none;stroke:none;stroke-width:0"
         d="M 0,0 H 64 V 64 H 0 Z" />
      <path
         id="path4700"
         style="stroke:none;stroke-width:24;paint-order:stroke fill markers;stop-color:#000000"
         d="M 128 64.78125 L 128 70.392578 C 145.63945 72.57454 163.16436 73.204718 181.93945 71.402344 C 185.35664 71.0743 188.70156 70.660227 192 70.197266 L 192 64.804688 C 182.46524 65.996131 172.12172 66.773838 160.93945 66.775391 C 149.42851 66.776986 138.65692 66.04136 128 64.78125 z M 192 75.568359 C 182.71022 76.996317 172.60999 77.969962 161.72852 78.107422 C 150.68874 78.246881 139.58081 77.528028 128 76.039062 L 128 81.667969 C 131.39241 82.120943 134.80556 82.531982 138.26562 82.847656 C 153.64512 84.250785 168.30405 84.058542 182.95898 82.253906 C 186.03256 81.87542 189.0278 81.396473 192 80.894531 L 192 75.568359 z M 192 86.244141 C 182.97073 87.879429 173.14819 89.039723 162.58008 89.320312 C 151.30194 89.619753 139.90117 88.904924 128 87.267578 L 128 92.847656 C 131.55937 93.350746 135.14455 93.794715 138.77539 94.126953 C 154.42008 95.558512 169.27868 95.143358 184.03125 92.925781 C 186.744 92.518006 189.3709 92.000398 192 91.486328 L 192 86.244141 z M 192 96.757812 C 183.23099 98.568398 173.71907 99.910727 163.46094 100.33398 C 151.93656 100.80949 140.23324 100.11717 128 98.353516 L 128 103.85547 C 131.73078 104.40298 135.49096 104.86776 139.29688 105.20898 C 155.20631 106.63537 170.26771 105.9848 185.11719 103.36133 C 187.44475 102.95012 189.73158 102.47571 192 101.97656 L 192 96.757812 z M 192 107.07617 C 183.49014 109.0259 174.28591 110.52276 164.33789 111.08203 C 152.56936 111.74366 140.56382 111.09245 128 109.22852 L 128 114.62109 C 131.89821 115.20491 135.83189 115.6777 139.80859 116.01953 C 155.97491 117.40919 171.23418 116.51457 186.17773 113.50391 C 188.14376 113.10781 190.08317 112.67342 192 112.21289 L 192 107.07617 z M 192 117.14258 C 183.73993 119.19683 174.82602 120.81345 165.17969 121.49805 C 153.17053 122.35033 140.88963 121.80239 128 119.86523 L 128 125.06836 C 132.05812 125.67889 136.15326 126.16216 140.29297 126.49609 C 156.70159 127.81972 172.15076 126.68127 187.18359 123.3125 C 188.80942 122.94816 190.40954 122.54917 192 122.13867 L 192 117.14258 z M 192 126.90234 C 190.61535 127.26941 189.26976 127.66334 187.84375 128 L 192 128 L 192 126.90234 z "
         transform="translate(-128,-64)" />
    </g>
    <g
       id="sym-7"
       transform="translate(192,64)">
      <path
         id="sym-7-bbox"
         style="fill:none;stroke:none;stroke-width:0"
         d="M 0,0 H 64 V 64 H 0 Z" />
      <path
         id="path4724"
         style="stroke:none;stroke-width:24;paint-order:stroke fill markers;stop-color:#000000"
         d="M 197.93555 64 C 195.99757 64.287219 194.01387 64.553039 192 64.804688 L 192 70.197266 C 202.89789 68.667664 213.14828 66.473582 222.70312 64 L 197.93555 64 z M 238.40234 64 C 235.80323 64.834569 233.19301 65.673974 230.07031 66.628906 C 219.69483 69.80176 206.90438 73.277366 192 75.568359 L 192 80.894531 C 214.82416 77.040015 234.40846 69.950179 250.56055 64 L 238.40234 64 z M 256 66.015625 C 256 66.015625 247.0585 69.822649 230.86914 75.574219 C 220.51918 79.251234 207.43086 83.449464 192 86.244141 L 192 91.486328 C 217.83782 86.434236 239.61797 76.700651 256 70.015625 C 256 70.015625 256.009 67.355834 256 66.015625 z M 256 74.017578 C 256 74.017578 247.54135 78.004148 231.69141 84.394531 C 221.38006 88.551866 207.96874 93.46066 192 96.757812 L 192 101.97656 C 218.16585 96.218972 240.30579 85.042378 256 78.017578 C 256 78.017578 256.008 75.357625 256 74.017578 z M 256 82.019531 C 256 82.019531 248.02243 86.125319 232.50977 93.080078 C 222.24386 97.682569 208.51643 103.29203 192 107.07617 L 192 112.21289 C 218.94093 105.74012 240.95338 93.301776 256 86.019531 C 256 86.019531 256.008 83.359467 256 82.019531 z M 256 90.021484 C 256 90.021484 248.49604 94.18313 233.29883 101.62109 C 223.08487 106.62011 209.05847 112.90019 192 117.14258 L 192 122.13867 C 219.47764 115.04671 241.61523 101.44327 256 94.021484 C 256 94.021484 256.007 91.36136 256 90.021484 z M 256 98.023438 C 256 98.023438 248.93223 102.18623 234.03516 110.00977 C 223.87871 115.34366 209.57806 122.24242 192 126.90234 L 192 128 L 203.62305 128 C 226.13202 119.99291 244.22018 108.40812 256 102.02344 C 256 102.02344 256.007 99.363303 256 98.023438 z M 256 106.02539 C 256 106.02539 249.32816 110.13679 234.70117 118.24414 C 229.39841 121.18332 222.86689 124.64544 215.26562 128 L 224.29883 128 C 237.52514 121.29821 248.35832 114.30826 256 110.02539 C 256 110.02539 256.007 107.36529 256 106.02539 z M 256 114.02734 C 256 114.02734 249.67323 118.03792 235.2793 126.32227 C 234.36034 126.85116 233.29515 127.43857 232.29883 128 L 239.43359 128 C 245.90942 124.13369 251.5234 120.57737 256 118.02734 C 256 118.02734 256.006 115.36732 256 114.02734 z M 256 122.0293 C 256 122.0293 252.10835 124.43222 246.19727 128 L 252.75 128 C 253.76116 127.39469 255.08407 126.54959 256 126.0293 C 256 126.0293 256.006 123.3694 256 122.0293 z "
         transform="translate(-192,-64)" />
    </g>
    <g
       id="sym-8"
       transform="translate(0,128)">
      <path
         id="sym-8-bbox"
         style="fill:none;stroke:none;stroke-width:0"
         d="M 0,0 H 64 V 64 H 0 Z" />
      <path
         id="path4748"
         style="stroke:none;stroke-width:24;paint-order:stroke fill markers;stop-color:#000000"
         d="M 23.046875 128 C 30.404614 130.31883 38.549565 133.6764 49.988281 138.52539 C 54.323514 140.36314 59.077162 142.35386 64 144.36523 L 64 139.82422 C 53.635318 135.58384 43.958316 131.38155 35.34375 128 L 23.046875 128 z M 46.435547 128 C 47.834509 128.57925 48.84987 128.95588 50.351562 129.58398 C 54.504075 131.32084 59.29792 133.28031 64 135.20117 L 64 130.5625 C 61.853516 129.69075 59.820441 128.86056 57.736328 128 L 46.435547 128 z M 5.3183594 129.08789 C 3.3973172 129.17843 1.6302595 129.4875 0 130.03125 L 0 134.03125 C -5.9211895e-16 134.03125 1.5291724 133.39307 4.7324219 133.22852 C 8.1140647 133.05482 12.862135 133.50869 20.419922 135.82812 C 28.424064 138.28452 36.977028 141.92785 49.728516 147.33398 C 54.143896 149.20593 58.983803 151.21637 64 153.24219 L 64 148.83203 C 50.209382 143.21918 37.612967 137.50641 27.162109 133.73633 C 18.223739 130.51187 11.081486 128.81626 5.3183594 129.08789 z M 5.2519531 137.33008 C 3.351608 137.34884 1.6066001 137.57683 0 138.0332 L 0 142.0332 C 0 142.0332 1.5146241 141.49512 4.6894531 141.45898 C 8.0528994 141.42069 12.754468 142.01894 20.296875 144.43359 C 28.358377 147.01442 36.739629 150.61617 49.578125 155.98828 C 54.042234 157.85623 58.930324 159.84753 64 161.8457 L 64 157.57617 C 50.106116 152.02173 37.43782 146.293 26.966797 142.41602 C 18.047552 139.11359 10.952988 137.27378 5.2519531 137.33008 z M 5.2265625 145.58984 C 3.3346288 145.53369 1.5984173 145.67633 0 146.03516 L 0 150.03516 C -5.9211895e-16 150.03516 1.5143701 149.60833 4.6835938 149.70508 C 8.0532078 149.80795 12.731895 150.54331 20.277344 153.02344 C 28.447231 155.70881 36.590699 159.19698 49.539062 164.47266 C 54.019124 166.29801 58.919403 168.22707 64 170.15625 L 64 166.02539 C 51.615167 161.18402 39.287221 155.70548 26.884766 151.06055 C 17.973859 147.72326 10.902364 145.7583 5.2265625 145.58984 z M 2.5136719 153.80664 C 1.6402292 153.83514 0.80309814 153.91027 0 154.03711 L 0 158.03711 C 2.3684758e-15 158.03711 5.7646477 156.73504 20.363281 161.58398 C 28.724604 164.3612 36.504382 167.64239 49.617188 172.77148 C 54.080401 174.51728 58.951536 176.34415 64 178.16602 L 64 174.19336 C 50.07831 169.02798 37.393943 163.56316 26.917969 159.65234 C 16.518116 155.76995 8.6277706 153.60718 2.5136719 153.80664 z M 2.7460938 161.95312 C 1.804265 161.93412 0.88888369 161.96062 0 162.03906 L 0 166.03906 C -2.3684758e-15 166.03906 5.8916487 165.25178 20.552734 170.09375 C 29.277089 172.97505 36.391912 175.90174 49.8125 180.86523 C 54.224836 182.4971 59.028222 184.18883 64 185.86914 L 64 182.05664 C 35.139029 172.00314 16.1229 162.22307 2.7460938 161.95312 z M 0 170.04297 L 0 174.04297 C 0 174.04297 6.0887997 173.77155 20.847656 178.53711 C 28.302411 180.94421 38.09202 184.60758 50.126953 188.74609 C 53.237301 189.81567 56.503029 190.90836 59.888672 192 L 64 192 L 64 189.60547 C 33.235993 179.65387 13.9366 169.76974 0 170.04297 z M 0 178.04492 L 0 182.04492 C 2.3684758e-15 182.04492 6.3528464 182.2714 21.244141 186.88867 C 24.898739 188.02183 30.518502 189.90023 36.896484 192 L 48.345703 192 C 27.068875 185.03129 10.229583 178.49488 0 178.04492 z M 0 186.04688 L 0 190.04688 C 1.5910597e-15 190.04688 3.3276607 190.46304 9.8710938 192 L 24.175781 192 C 14.339626 188.97672 6.0836916 186.64933 0 186.04688 z "
         transform="translate(0,-128)" />
    </g>
    <g
       id="sym-9"
       transform="translate(64,128)">
      <path
         id="sym-9-bbox"
         style="fill:none;stroke:none;stroke-width:0"
         d="M 0,0 H 64 V 64 H 0 Z" />
      <path
         id="path4772"
         style="stroke:none;stroke-width:24;paint-order:stroke fill markers;stop-color:#000000"
         d="M 69.298828 128 C 76.641372 130.88624 84.398068 133.78498 92.46875 136.37891 C 104.04509 140.09955 115.86155 143.07796 128 144.83789 L 128 140.0293 C 124.9565 139.58173 121.89109 139.08008 118.77539 138.46289 C 106.08939 135.94992 93.963418 132.27094 82.011719 128 L 69.298828 128 z M 97.021484 128 C 107.14836 131.04939 117.43998 133.5806 128 135.15234 L 128 130.13867 C 124.91491 129.67652 121.80659 129.15711 118.64648 128.52539 C 117.82873 128.36192 117.02395 128.17255 116.21094 128 L 97.021484 128 z M 64 130.5625 L 64 135.20117 C 72.830548 138.80857 82.182455 142.48461 92.300781 145.72656 C 103.92589 149.45129 115.80362 152.39239 128 154.08789 L 128 149.50391 C 124.99046 149.07616 121.95822 148.5942 118.87891 147.99805 C 101.72182 144.67642 85.55409 139.16006 69.546875 132.83203 C 67.601537 132.06299 65.90088 131.33451 64 130.5625 z M 64 139.82422 L 64 144.36523 C 72.714748 147.92591 82.157824 151.5749 92.158203 154.72852 C 103.82444 158.40746 115.75352 161.27248 128 162.87695 L 128 158.52734 C 125.01528 158.12404 122.00956 157.66733 118.95703 157.09766 C 101.65175 153.86808 85.321327 148.36136 69.224609 141.96289 C 67.439808 141.25343 65.746415 140.53871 64 139.82422 z M 64 148.83203 L 64 153.24219 C 72.675532 156.74585 82.065829 160.30682 92.046875 163.36523 C 103.74406 166.94952 115.7142 169.69891 128 171.1875 L 128 167.08008 C 125.0308 166.70542 122.04135 166.2786 119.00586 165.74023 C 101.59092 162.65156 85.134472 157.23774 68.974609 150.86133 C 67.274128 150.19035 65.664945 149.50967 64 148.83203 z M 64 157.57617 L 64 161.8457 C 72.64725 165.25395 81.99954 168.68988 91.96875 171.61914 C 103.68745 175.06247 115.68495 177.65983 128 179.00977 L 128 175.14844 C 125.03558 174.80618 122.05117 174.41311 119.02148 173.91016 C 101.53836 171.00781 84.999488 165.76635 68.804688 159.50391 C 67.161721 158.86858 65.609359 158.21955 64 157.57617 z M 64 166.02539 L 64 170.15625 C 72.630936 173.43355 81.960165 176.71133 91.927734 179.48047 C 103.65662 182.73893 115.66806 185.15226 128 186.34375 L 128 182.72656 C 125.03054 182.42022 122.04002 182.06516 119.00586 181.60156 C 101.4981 178.92651 84.919089 173.93216 68.71875 167.87305 C 67.143411 167.28306 65.5731 166.64033 64 166.02539 z M 64 174.19336 L 64 178.16602 C 72.626718 181.27918 81.948751 184.36872 91.925781 186.94922 C 100.20107 189.08957 108.61825 190.80909 117.18945 192 L 128 192 L 128 189.81836 C 125.01549 189.55113 122.01195 189.23505 118.96289 188.81445 C 101.47529 186.40217 84.896634 181.72607 68.720703 175.95508 C 67.106112 175.37905 65.581909 174.7803 64 174.19336 z M 64 182.05664 L 64 185.86914 C 70.339389 188.01166 77.073929 190.0916 84.177734 192 L 98.251953 192 C 88.225378 189.79034 78.443226 186.97274 68.8125 183.74414 C 67.129318 183.17987 65.619502 182.62078 64 182.05664 z M 64 189.60547 L 64 192 L 71.648438 192 C 70.767797 191.73476 69.874198 191.50445 68.996094 191.23242 C 67.24675 190.69049 65.679121 190.14863 64 189.60547 z "
         transform="translate(-64,-128)" />
    </g>
    <g
       id="sym-10"
       transform="translate(128,128)">
      <path
         id="sym-10-bbox"
         style="fill:none;stroke:none;stroke-width:0"
         d="M 0,0 H 64 V 64 H 0 Z" />
      <path
         id="path4796"
         style="stroke:none;stroke-width:24;paint-order:stroke fill markers;stop-color:#000000"
         d="M 187.84375 128 C 181.00257 129.61508 173.71212 130.8737 165.96484 131.5332 C 153.73785 132.57406 141.18641 132.11401 128 130.13867 L 128 135.15234 C 132.20433 135.77811 136.44571 136.26655 140.73438 136.58398 C 157.36473 137.81491 172.98803 136.43871 188.10352 132.75 C 189.41931 132.4289 190.70838 132.073 192 131.7207 L 192 128 L 187.84375 128 z M 192 136.30469 C 184.18126 138.48091 175.77383 140.25089 166.66992 141.14648 C 154.24775 142.36852 141.45269 142.00762 128 140.0293 L 128 144.83789 C 132.33111 145.46585 136.70136 145.94763 141.11914 146.24023 C 157.94541 147.35468 173.72418 145.75377 188.91406 141.79102 C 189.95691 141.51896 190.97283 141.21193 192 140.91992 L 192 136.30469 z M 192 145.30664 C 184.36027 147.51063 176.15238 149.32399 167.27344 150.30469 C 154.68425 151.69519 141.68058 151.44833 128 149.50391 L 128 154.08789 C 132.43648 154.70464 136.91238 155.16745 141.4375 155.42773 C 158.42936 156.40512 174.34119 154.59845 189.5957 150.41406 C 190.40915 150.19093 191.19689 149.94008 192 149.70508 L 192 145.30664 z M 192 153.87305 C 184.50474 156.08933 176.45331 157.92928 167.75977 158.98242 C 155.03607 160.52379 141.8638 160.40065 128 158.52734 L 128 162.87695 C 132.5158 163.46859 137.07178 163.90161 141.67773 164.12305 C 158.80107 164.94626 174.82087 162.95592 190.12891 158.60742 C 190.76223 158.42752 191.37316 158.22405 192 158.03711 L 192 153.87305 z M 192 161.99414 C 184.62281 164.20728 176.71038 166.05105 168.12109 167.16992 C 155.29791 168.84032 141.99847 168.84643 128 167.08008 L 128 171.1875 C 132.56876 171.74107 137.17783 172.13308 141.83789 172.31055 C 159.05557 172.96624 175.1546 170.82232 190.50391 166.37109 C 191.0106 166.22416 191.49755 166.05752 192 165.90625 L 192 161.99414 z M 192 169.63281 C 184.69025 171.83708 176.84651 173.69074 168.34375 174.86133 C 155.45942 176.63512 142.08011 176.77407 128 175.14844 L 128 179.00977 C 132.59252 179.51318 137.22567 179.85645 141.91016 179.98633 C 159.18276 180.46523 175.32969 178.199 190.70703 173.70898 C 191.1437 173.58148 191.56597 173.43557 192 173.30469 L 192 169.63281 z M 192 176.80273 C 184.71421 178.99085 176.89495 180.84943 168.42578 182.0625 C 155.51928 183.91115 142.10776 184.18199 128 182.72656 L 128 186.34375 C 132.58773 186.78701 137.21654 187.07384 141.89648 187.1543 C 159.18302 187.45149 175.34699 185.0984 190.73828 180.63477 C 191.16395 180.51132 191.5766 180.37073 192 180.24414 L 192 176.80273 z M 192 183.52148 C 184.68255 185.68333 176.82787 187.54805 168.36328 188.79102 C 155.47476 190.68359 142.08013 191.07908 128 189.81836 L 128 192 L 168.04688 192 C 175.75781 190.87015 183.2646 189.25003 190.59375 187.16797 C 191.06718 187.03348 191.52887 186.88051 192 186.74219 L 192 183.52148 z M 192 189.82031 C 189.28874 190.60118 186.47556 191.31315 183.60352 192 L 192 192 L 192 189.82031 z "
         transform="translate(-128,-128)" />
    </g>
    <g
       id="sym-11"
       transform="translate(192,128)">
      <path
         id="sym-11-bbox"
         style="fill:none;stroke:none;stroke-width:0"
         d="M 0,0 H 64 V 64 H 0 Z" />
      <path
         id="path4820"
         style="stroke:none;stroke-width:24;paint-order:stroke fill markers;stop-color:#000000"
         d="M 192 128 L 192 131.7207 C 196.01603 130.62531 199.85145 129.34166 203.62305 128 L 192 128 z M 215.26562 128 C 208.39596 131.03169 200.57281 133.91859 192 136.30469 L 192 140.91992 C 203.93678 137.52648 214.73161 132.84773 224.29883 128 L 215.26562 128 z M 232.29883 128 C 222.41804 133.56785 208.79132 140.46251 192 145.30664 L 192 149.70508 C 210.94705 144.16084 226.93157 135.46418 239.43359 128 L 232.29883 128 z M 246.19727 128 C 243.1797 129.82132 240.55619 131.4216 235.75586 134.24414 C 225.78532 140.10671 210.84136 148.30182 192 153.87305 L 192 158.03711 C 219.02467 149.97772 239.66719 135.83174 252.75 128 L 246.19727 128 z M 256 130.03125 C 256 130.03125 250.17802 133.70741 236.11719 142.01562 C 229.29308 146.04783 219.71428 151.43188 208.4707 156.13867 C 203.37493 158.27187 197.84337 160.24114 192 161.99414 L 192 165.90625 C 221.37234 157.06301 243.49521 140.96825 256 134.03125 C 256 134.03125 256.006 131.37151 256 130.03125 z M 256 138.0332 C 256 138.0332 250.32626 141.48328 236.35742 149.63867 C 229.5927 153.58809 220.01606 158.93378 208.7832 163.64062 C 203.60123 165.81199 197.96904 167.83284 192 169.63281 L 192 173.30469 C 221.27898 164.4757 244.52395 148.11014 256 142.0332 C 256 142.0332 256.006 139.37365 256 138.0332 z M 256 146.03516 C 256 146.03516 250.4007 149.23056 236.4707 157.12695 C 229.74281 160.94074 220.14126 166.17358 208.91992 170.8125 C 203.70148 172.96981 198.024 174.99357 192 176.80273 L 192 180.24414 C 221.11398 171.5395 244.80618 155.55553 256 150.03516 C 256 150.03516 256.006 147.37584 256 146.03516 z M 256 154.03711 C 256 154.03711 250.39464 156.94972 236.44922 164.48633 C 226.35138 169.94355 211.20435 177.84779 192 183.52148 L 192 186.74219 C 220.72415 178.30873 245.09865 162.91393 256 158.03711 C 256 158.03711 256.006 155.37803 256 154.03711 z M 256 162.03906 C 256 162.03906 250.31389 164.64705 236.29883 171.73047 C 226.19206 176.83858 211.08658 184.32324 192 189.82031 L 192 192 L 194.67188 192 C 222.62695 183.62907 243.88381 170.82045 256 166.03906 C 256 166.03906 256.006 163.38025 256 162.03906 z M 256 170.04297 C 256 170.04297 250.05067 172.38008 236.01562 178.87891 C 228.4898 182.36369 217.45813 187.41868 203.98047 192 L 212.5 192 C 231.54015 185.00448 246.43137 177.27647 256 174.04297 C 256 174.04297 256.006 171.38444 256 170.04297 z M 256 178.04492 C 256 178.04492 249.80752 180.05703 235.60938 185.94727 C 231.57452 187.62116 226.43811 189.74809 220.56641 192 L 228.9668 192 C 240.11672 187.7486 249.26096 183.93377 256 182.04492 C 256 182.04492 256.006 179.38668 256 178.04492 z M 256 186.04688 C 256 186.04688 250.10812 187.62384 237.80664 192 L 248.14844 192 C 250.74991 191.30297 253.36228 190.63888 256 190.04688 C 256 190.04688 256.007 187.38894 256 186.04688 z "
         transform="translate(-192,-128)" />
    </g>
    <g
       id="sym-12"
       transform="translate(0,192)">
      <path
         id="sym-12-bbox"
         style="fill:none;stroke:none;stroke-width:0"
         d="M 0,0 H 64 V 64 H 0 Z" />
      <path
         id="path4844"
         style="stroke:none;stroke-width:24;paint-order:stroke fill markers;stop-color:#000000"
         d="M 9.8710938 192 C 13.068315 192.75098 16.793987 193.68815 21.736328 195.13086 C 30.445149 197.67304 46.04305 202.72583 64 207.17969 L 64 203.82422 C 48.893745 199.8324 35.443328 195.46324 24.175781 192 L 9.8710938 192 z M 36.896484 192 C 44.709511 194.57221 53.879538 197.50268 64 200.33789 L 64 196.86133 C 58.571263 195.25894 53.313653 193.62713 48.345703 192 L 36.896484 192 z M 59.888672 192 C 61.213752 192.42725 62.635345 192.8446 64 193.26953 L 64 192 L 59.888672 192 z M 0 194.04883 L 0 198.04883 C 2.3684758e-15 198.04883 7.0647944 199.14142 22.320312 203.24023 C 31.494213 205.70505 46.510545 210.01731 64 213.75586 L 64 210.51562 C 36.162704 204.08592 13.564817 195.9855 0 194.04883 z M 0 202.05078 L 0 206.05078 C -2.3684758e-15 206.05078 7.4984618 207.46212 22.982422 211.18945 C 32.541849 213.49061 47.020829 217.06321 64 220.08789 L 64 216.95508 C 36.677978 211.59871 14.141323 204.50105 0 202.05078 z M 0 210.05273 L 0 214.05273 C 0 214.05273 7.8892432 215.6571 23.71875 218.95703 C 33.601776 221.01732 47.568233 223.86622 64 226.20117 L 64 223.16797 C 37.238883 218.87823 14.766927 212.84813 0 210.05273 z M 0 218.05469 L 0 222.05469 C 2.3684758e-15 222.05469 8.4915893 223.74967 24.513672 226.51172 C 34.611278 228.25245 48.258037 230.34896 64 232.03711 L 64 229.16992 C 37.878502 225.90402 14.942956 220.89683 0 218.05469 z M 0 226.05664 L 0 230.05664 C -2.3684758e-15 230.05664 9.0295189 231.65875 25.355469 233.83008 C 35.668246 235.20166 48.857108 236.66038 64 237.77734 L 64 234.99023 C 38.190949 232.6666 16.24812 228.91068 0 226.05664 z M 0 234.05859 L 0 238.05859 C -2.3684758e-15 238.05859 9.5800733 239.371 26.228516 240.88281 C 36.709507 241.83457 49.460107 242.72473 64 243.35938 L 64 240.56836 C 38.780994 239.09926 17.208628 236.56249 0 234.05859 z M 0 242.06055 L 0 246.06055 C -4.7369516e-15 246.06055 10.129651 246.84988 27.115234 247.63672 C 37.718468 248.1279 50.053902 248.5291 64 248.78711 L 64 246.07617 C 39.342028 245.32697 18.069409 243.8595 0 242.06055 z M 0 250.0625 L 0 254.0625 C 4.7369516e-15 254.0625 46.667148 254.06172 64 254.0625 L 64 251.39648 C 40.086971 251.19341 18.711019 250.76302 0 250.0625 z "
         transform="translate(0,-192)" />
    </g>
    <g
       id="sym-13"
       transform="translate(64,192)">
      <path
         id="sym-13-bbox"
         style="fill:none;stroke:none;stroke-width:0"
         d="M 0,0 H 64 V 64 H 0 Z" />
      <path
         id="path4868"
         style="stroke:none;stroke-width:24;paint-order:stroke fill markers;stop-color:#000000"
         d="M 64 192 L 64 193.26953 C 72.659879 195.9661 82.013128 198.59507 92.050781 200.72461 C 103.73595 203.20368 115.70009 204.90241 128 205.53906 L 128 202.60156 C 124.96016 202.42069 121.90001 202.19332 118.79492 201.86914 C 102.43054 200.16065 86.852407 196.57921 71.648438 192 L 64 192 z M 84.177734 192 C 86.751475 192.69142 89.307262 193.39606 91.966797 194.02539 C 103.67982 196.79709 115.67441 198.75583 128 199.58594 L 128 196.43555 C 124.99148 196.2103 121.96391 195.93852 118.89062 195.56445 C 111.87603 194.71067 105.00969 193.48927 98.251953 192 L 84.177734 192 z M 117.18945 192 C 120.76492 192.49679 124.36884 192.89602 128 193.19531 L 128 192 L 117.18945 192 z M 64 196.86133 L 64 200.33789 C 73.111601 202.89047 82.710629 205.30185 92.183594 207.06055 C 103.82605 209.22202 115.74284 210.63962 128 211.08203 L 128 208.3457 C 124.92288 208.21086 121.82468 208.0331 118.68164 207.76172 C 101.52283 206.28016 85.198601 202.89312 69.271484 198.41992 C 67.465477 197.9127 65.761241 197.38119 64 196.86133 z M 64 203.82422 L 64 207.17969 C 73.049481 209.42423 82.657531 211.5296 92.367188 213.06055 C 103.95343 214.88738 115.80147 216.02731 128 216.28125 L 128 213.66992 C 124.87449 213.58179 121.74908 213.49423 118.55664 213.27734 C 101.59255 212.12482 85.430763 209.24367 69.640625 205.3125 C 67.710534 204.83198 65.880693 204.32119 64 203.82422 z M 64 210.51562 L 64 213.75586 C 73.029311 215.68597 82.679758 217.47282 92.605469 218.75195 C 104.11968 220.2358 115.87893 221.1006 128 221.17969 L 128 218.7168 C 124.83351 218.67442 121.66361 218.62546 118.42969 218.46484 C 101.69867 217.63385 85.729526 215.27096 70.099609 211.91406 C 68.015565 211.46646 66.029026 210.98428 64 210.51562 z M 64 216.95508 L 64 220.08789 C 73.04267 221.69876 82.761491 223.16338 92.898438 224.17773 C 104.81869 225.37053 116.44975 225.91369 128 225.8418 L 128 223.50586 C 109.1739 223.50588 90.317658 221.76115 70.646484 218.23828 C 68.379595 217.83231 66.205529 217.38746 64 216.95508 z M 64 223.16797 L 64 226.20117 C 73.084773 227.49212 82.897887 228.63095 93.25 229.37891 C 105.05341 230.23171 116.56075 230.54256 128 230.35352 L 128 228.08789 C 109.38159 228.30427 90.733053 227.08265 71.277344 224.30273 C 68.80011 223.94878 66.409265 223.55417 64 223.16797 z M 64 229.16992 L 64 232.03711 C 73.225655 233.02646 82.987978 233.91008 93.666016 234.4082 C 105.32964 234.9523 116.68993 235.06199 128 234.79492 L 128 232.56055 C 109.616 232.93642 91.196878 232.18484 71.990234 230.12305 C 69.285429 229.83269 66.643733 229.50046 64 229.16992 z M 64 234.99023 L 64 237.77734 C 73.324223 238.46511 83.221548 239.05411 94.144531 239.32422 C 105.64532 239.60861 116.83305 239.49211 128 239.19531 L 128 237.01562 C 109.87403 237.47959 91.695917 237.12466 72.777344 235.72656 C 69.79295 235.50601 66.889107 235.25035 64 234.99023 z M 64 240.56836 L 64 243.35938 C 73.449302 243.77183 83.508278 244.0973 94.691406 244.18945 C 105.98892 244.28255 116.99801 244.12152 128 243.85352 L 128 241.5 C 110.14803 241.96629 92.216558 241.96255 73.630859 241.14062 C 70.281223 240.99249 67.223557 240.75614 64 240.56836 z M 64 246.07617 L 64 248.78711 C 73.602298 248.96475 83.848038 249.08502 95.308594 249.07617 C 106.35457 249.06766 117.17146 248.94356 128 248.77148 L 128 246.27344 C 110.43382 246.64135 92.735954 246.76519 74.546875 246.39648 C 70.883376 246.32222 67.515135 246.18297 64 246.07617 z M 128 251.34961 C 110.69714 251.50443 93.235517 251.60686 75.513672 251.53125 C 71.372454 251.51358 67.961647 251.43013 64 251.39648 L 64 254.0625 C 81.332852 254.06328 101.33372 254.06187 128 254.0625 L 128 251.34961 z "
         transform="translate(-64,-192)" />
    </g>
    <g
       id="sym-14"
       transform="translate(128,192)">
      <path
         id="sym-14-bbox"
         style="fill:none;stroke:none;stroke-width:0"
         d="M 0,0 H 64 V 64 H 0 Z" />
      <path
         id="path4892"
         style="stroke:none;stroke-width:24;paint-order:stroke fill markers;stop-color:#000000"
         d="M 128 192 L 128 193.19531 C 132.55431 193.57069 137.15056 193.79711 141.79688 193.82812 C 150.83679 193.88848 159.56558 193.24272 168.04688 192 L 128 192 z M 183.60352 192 C 178.65708 193.18295 173.56104 194.26462 168.1582 195.06641 C 155.32746 196.9705 141.99815 197.48358 128 196.43555 L 128 199.58594 C 132.49356 199.88857 137.0284 200.05172 141.61328 200.03516 C 158.80233 199.97306 174.90088 197.55671 190.27539 193.33984 C 190.86857 193.17715 191.41255 192.98145 192 192.81445 L 192 192 L 183.60352 192 z M 192 195.70703 C 184.4687 197.80623 176.41517 199.65666 167.81641 200.92773 C 155.08184 202.81017 141.86431 203.42648 128 202.60156 L 128 205.53906 C 132.4075 205.7672 136.85585 205.86513 141.35352 205.80469 C 158.43175 205.57519 174.45001 203.18999 189.79297 199.18945 C 190.55145 198.99169 191.25061 198.7586 192 198.55469 L 192 195.70703 z M 192 201.29297 C 184.30324 203.3309 176.08486 205.14836 167.34375 206.41602 C 154.74217 208.24353 141.68155 208.94524 128 208.3457 L 128 211.08203 C 132.29934 211.23721 136.63554 211.28247 141.02344 211.18359 C 157.95109 210.80212 173.85666 208.48883 189.15234 204.76172 C 190.1298 204.52354 191.03702 204.24683 192 204 L 192 201.29297 z M 192 206.62109 C 184.09386 208.5748 175.66385 210.33912 166.75391 211.58594 C 154.32622 213.32501 141.44652 214.0491 128 213.66992 L 128 216.28125 C 132.17041 216.36807 136.37988 216.35681 140.63672 216.22656 C 157.37617 215.71438 173.13843 213.51123 188.37109 210.10938 C 189.59028 209.83574 190.7891 209.50271 192 209.20508 L 192 206.62109 z M 192 211.77148 C 183.83942 213.61296 175.15375 215.29545 166.0625 216.5 C 153.83094 218.1206 141.18296 218.89322 128 218.7168 L 128 221.17969 C 132.02661 221.20596 136.09264 221.14538 140.20312 220.99219 C 156.71957 220.37667 172.31086 218.32823 187.46484 215.29688 C 189.01554 214.98668 190.48154 214.64237 192 214.31836 L 192 211.77148 z M 192 216.83008 C 183.53654 218.52675 174.54663 220.09455 165.28516 221.23047 C 152.7225 222.77127 140.3679 223.50585 128 223.50586 L 128 225.8418 C 147.39063 225.7211 166.55155 223.86217 186.45703 220.39453 C 188.34809 220.0651 190.15303 219.70762 192 219.36328 L 192 216.83008 z M 192 221.83008 C 183.11793 223.35941 173.893 224.81695 164.44727 225.85938 C 152.16904 227.21439 140.09022 227.94738 128 228.08789 L 128 230.35352 C 146.95938 230.0402 165.73383 228.35397 185.37305 225.48047 C 187.67928 225.14303 189.75301 224.76595 192 224.41406 L 192 221.83008 z M 192 226.99609 C 182.64786 228.31106 172.98429 229.57849 163.57031 230.47852 C 151.59567 231.62336 139.80476 232.31919 128 232.56055 L 128 234.79492 C 146.51477 234.35773 164.89344 232.90353 184.24414 230.64062 C 186.92872 230.32669 189.38634 229.99059 192 229.66602 L 192 226.99609 z M 192 232.4082 C 182.85657 233.38904 173.20129 234.36311 162.68555 235.1875 C 151.02791 236.10142 139.52394 236.72065 128 237.01562 L 128 239.19531 C 146.06876 238.71508 164.06329 237.6245 183.10156 235.97266 C 186.57071 235.67166 188.78325 235.44275 192 235.14844 L 192 232.4082 z M 192 238.05664 C 182.57682 238.75422 172.6075 239.46372 161.82227 240.09766 C 150.49322 240.76356 139.25952 241.2059 128 241.5 L 128 243.85352 C 145.65066 243.42356 163.27379 242.63671 181.98438 241.57812 C 185.81014 241.36168 188.44632 241.21273 192 241.00586 L 192 238.05664 z M 192 244.08203 C 182.22759 244.49185 172.15662 244.91968 161.01953 245.33008 C 150.02522 245.73519 139.03299 246.04236 128 246.27344 L 128 248.77148 C 145.2791 248.4969 162.59078 248.07113 180.93555 247.57031 C 185.08531 247.45702 188.13282 247.38971 192 247.28516 L 192 244.08203 z M 192 250.63086 C 182.23027 250.75755 175.07222 250.8232 160.3125 251.01172 C 149.6856 251.14745 138.84641 251.25256 128 251.34961 L 128 254.0625 C 154.66628 254.06313 163.99971 254.06297 192 254.0625 L 192 250.63086 z "
         transform="translate(-128,-192)" />
    </g>
    <g
       id="sym-15"
       transform="translate(192,192)">
      <path
         id="sym-15-bbox"
         style="fill:none;stroke:none;stroke-width:0"
         d="M 0,0 H 64 V 64 H 0 Z" />
      <path
         id="path4916"
         style="stroke:none;stroke-width:24;paint-order:stroke fill markers;stop-color:#000000"
         d="M 192 192 L 192 192.81445 C 192.91016 192.55572 193.77559 192.26839 194.67188 192 L 192 192 z M 203.98047 192 C 200.17416 193.29384 196.1919 194.53863 192 195.70703 L 192 198.55469 C 199.27552 196.57498 206.12537 194.3421 212.5 192 L 203.98047 192 z M 220.56641 192 C 212.4884 195.09807 202.85049 198.42001 192 201.29297 L 192 204 C 205.93561 200.42807 218.38475 196.03487 228.9668 192 L 220.56641 192 z M 237.80664 192 C 236.84052 192.34369 236.13341 192.57651 235.08398 192.95703 C 225.58561 196.40118 210.36926 202.08181 192 206.62109 L 192 209.20508 C 211.07753 204.51602 229.20441 197.07578 248.14844 192 L 237.80664 192 z M 256 194.04883 C 256 194.04883 249.12126 195.40898 234.44922 199.92969 C 225.07744 202.81729 209.94688 207.72169 192 211.77148 L 192 214.31836 C 219.62041 208.42468 241.90143 200.48252 256 198.04883 C 256 198.04883 256.007 195.39118 256 194.04883 z M 256 202.05078 C 256 202.05078 248.69695 203.10026 233.72266 206.89258 C 224.54509 209.21684 209.49437 213.32298 192 216.83008 L 192 219.36328 C 219.04299 214.32148 241.33083 207.90566 256 206.05078 C 256 206.05078 256.007 203.3934 256 202.05078 z M 256 210.05273 C 256 210.05273 248.22576 210.81167 232.91406 213.87109 C 224.08819 215.63459 208.96895 218.90833 192 221.83008 L 192 224.41406 C 218.37263 220.28405 240.75237 215.37867 256 214.05273 C 256 214.05273 256.008 211.39561 256 210.05273 z M 256 218.05469 C 256 218.05469 247.72065 218.55747 232.04492 220.90039 C 223.80802 222.13149 208.59543 224.66269 192 226.99609 L 192 229.66602 C 217.75934 226.46707 240.12876 222.92317 256 222.05469 C 256 222.05469 256.008 219.3978 256 218.05469 z M 256 226.05664 C 256 226.05664 247.1928 226.3438 231.13672 228.00977 C 220.99429 229.06214 207.47832 230.74781 192 232.4082 L 192 235.14844 C 218.02096 232.76766 237.40751 230.61335 256 230.05664 C 256 230.05664 256.008 227.39995 256 226.05664 z M 256 234.05859 C 256 234.05859 246.65172 234.18215 230.21094 235.23633 C 220.10063 235.8846 206.91706 236.95236 192 238.05664 L 192 241.00586 C 217.18621 239.53969 237.04394 238.29808 256 238.05859 C 256 238.05859 256.009 235.40212 256 234.05859 z M 256 242.06055 C 256 242.06055 246.11144 242.0795 229.29492 242.61523 C 219.29782 242.93371 206.25633 243.48418 192 244.08203 L 192 247.28516 C 216.45845 246.62387 236.6387 246.11305 256 246.06055 C 256 246.06055 256.009 243.40414 256 242.06055 z M 256 250.0625 C 256 250.0625 245.58679 250.05018 228.41797 250.19141 C 216.67023 250.28804 203.22821 250.48526 192 250.63086 L 192 254.0625 C 220.00029 254.06203 234.66513 254.065 256 254.0625 L 256 250.0625 z "
         transform="translate(-192,-192)" />
    </g>
  </g>
</svg>
