<?xml version="1.0" encoding="UTF-8"?>
<!-- Created with Inkscape (http://www.inkscape.org/) -->
<svg width="256" height="256" version="1.1" viewBox="0 0 256 256" xmlns="http://www.w3.org/2000/svg" xmlns:xlink="http://www.w3.org/1999/xlink">
 <defs>
  <symbol id="sym-0">
   <path id="sym-0-bbox" d="m0 0h64v64h-64z" fill="none"/>
   <path d="m32 0-32 32 32 32 32-32z"/>
  </symbol>
  <symbol id="sym-1">
   <path id="sym-1-bbox" d="m0 0h64v64h-64z" fill="none"/>
   <path d="m16 0-16 16 16 16 16-16z"/>
   <path d="m48 32-16 16 16 16 16-16z"/>
  </symbol>
  <symbol id="sym-2">
   <path id="sym-2-bbox" d="m0 0h64v64h-64z" fill="none"/>
   <path d="m16 0-16 16 16 16 16-16z"/>
   <path d="m48 0-16 16 16 16 16-16z"/>
   <path d="m32 32-16 16 16 16 16-16z"/>
  </symbol>
  <symbol id="sym-3">
   <path id="sym-3-bbox" d="m0 0h64v64h-64z" fill="none"/>
   <path d="m16 0-16 16 16 16 16-16z"/>
   <path d="m48 0-16 16 16 16 16-16z"/>
   <path d="m48 32-16 16 16 16 16-16z"/>
   <path d="m16 32-16 16 16 16 16-16z"/>
  </symbol>
  <symbol id="sym-4">
   <path id="sym-4-bbox" d="m0 0h64v64h-64z" fill="none"/>
   <path d="m9.3726 9.3726v45.255h45.255v-45.255z"/>
  </symbol>
  <symbol id="sym-5">
   <path id="sym-5-bbox" d="m0 0h64v64h-64z" fill="none"/>
   <path d="m48 0-16 16 16 16 16-16z"/>
   <path d="m16 32-16 16 16 16 16-16z"/>
  </symbol>
  <symbol id="sym-6">
   <path id="sym-6-bbox" d="m0 0h64v64h-64z" fill="none"/>
   <path d="m48 0-48 48 16 16 48-48z"/>
  </symbol>
  <symbol id="sym-7">
   <path id="sym-7-bbox" d="m0 0h64v64h-64z" fill="none"/>
   <path d="m64 48-48-48-16 16 48 48z"/>
  </symbol>
  <symbol id="sym-8">
   <path id="sym-8-bbox" d="m0 0h64v64h-64z" fill="none"/>
   <path transform="translate(0,-128)" d="m16 128-16 16 16 16-16 16 16 16 16-16 16 16 16-16-16-16 16-16-16-16-16 16z"/>
  </symbol>
  <symbol id="sym-9">
   <path id="sym-9-bbox" d="m0 0h64v64h-64z" fill="none"/>
   <path d="m4 4h24v24h-24z" stop-color="#000000" style="paint-order:stroke fill markers"/>
   <path d="m36 4h24v24h-24z" stop-color="#000000" style="paint-order:stroke fill markers"/>
   <path d="m36 36h24v24h-24z" stop-color="#000000" style="paint-order:stroke fill markers"/>
   <path d="m4 36h24v24h-24z" stop-color="#000000" style="paint-order:stroke fill markers"/>
  </symbol>
  <symbol id="sym-10">
   <path id="sym-10-bbox" d="m0 0h64v64h-64z" fill="none"/>
   <path d="m48 0-16 16 16 16 16-16z"/>
   <path d="m16 32-16 16 16 16 16-16z"/>
   <path d="m16 0-16 16 16 16 16-16z"/>
  </symbol>
  <symbol id="sym-11">
   <path id="sym-11-bbox" d="m0 0h64v64h-64z" fill="none"/>
   <path d="m48 0-16 16 16 16 16-16z"/>
   <path d="m16 32-16 16 16 16 16-16z"/>
   <path d="m48 32-16 16 16 16 16-16z"/>
  </symbol>
  <symbol id="sym-12">
   <path id="sym-12-bbox" d="m0 0h64v64h-64z" fill="none"/>
   <path d="m0 20.686v22.628l20-2.92e-4v20.686h23.314v-20.686l20.686 2.92e-4v-22.628l-20.686 2.92e-4v-20.686h-23.314v20.686z"/>
  </symbol>
  <symbol id="sym-13">
   <path id="sym-13-bbox" d="m0 0h64v64h-64z" fill="none"/>
   <path d="m48 0-16 16 16 16 16-16z"/>
   <path d="m16 0-16 16 16 16 16-16z"/>
   <path d="m48 32-16 16 16 16 16-16z"/>
  </symbol>
  <symbol id="sym-14">
   <path id="sym-14-bbox" d="m0 0h64v64h-64z" fill="none"/>
   <path d="m16 32-16 16 16 16 16-16z"/>
   <path d="m16 0-16 16 16 16 16-16z"/>
   <path d="m48 32-16 16 16 16 16-16z"/>
  </symbol>
  <symbol id="sym-15">
   <path id="sym-15-bbox" d="m0 0h64v64h-64z" fill="none"/>
   <path transform="translate(-192,-192)" d="m201.37 201.37v45.254h45.254v-45.254zm10.627 10.627h24v24h-24z"/>
  </symbol>
 </defs>
 <use xlink:href="#sym-0"/>
 <use transform="translate(64)" xlink:href="#sym-1"/>
 <use transform="translate(128)" xlink:href="#sym-2"/>
 <use transform="translate(192)" xlink:href="#sym-3"/>
 <use transform="translate(0,64)" xlink:href="#sym-4"/>
 <use transform="translate(64,64)" xlink:href="#sym-5"/>
 <use transform="translate(128,64)" xlink:href="#sym-6"/>
 <use transform="translate(192,64)" xlink:href="#sym-7"/>
 <use transform="translate(0,128)" xlink:href="#sym-8"/>
 <use transform="translate(64,128)" xlink:href="#sym-9"/>
 <use transform="translate(128,128)" xlink:href="#sym-10"/>
 <use transform="translate(192,128)" xlink:href="#sym-11"/>
 <use transform="translate(0,192)" xlink:href="#sym-12"/>
 <use transform="translate(64,192)" xlink:href="#sym-13"/>
 <use transform="translate(128,192)" xlink:href="#sym-14"/>
 <use transform="translate(192,192)" xlink:href="#sym-15"/>
</svg>
