<?xml version="1.0" encoding="UTF-8" standalone="no"?>
<!-- Created with Inkscape (http://www.inkscape.org/) -->

<svg
   width="256"
   height="256"
   viewBox="0 0 256 256"
   version="1.1"
   id="svg6439"
   inkscape:version="1.1.1 (3bf5ae0d25, 2021-09-20, custom)"
   sodipodi:docname="src.svg"
   xmlns:inkscape="http://www.inkscape.org/namespaces/inkscape"
   xmlns:sodipodi="http://sodipodi.sourceforge.net/DTD/sodipodi-0.dtd"
   xmlns="http://www.w3.org/2000/svg"
   xmlns:svg="http://www.w3.org/2000/svg">
  <sodipodi:namedview
     id="namedview6441"
     pagecolor="#505050"
     bordercolor="#ffffff"
     borderopacity="1"
     inkscape:pageshadow="0"
     inkscape:pageopacity="0"
     inkscape:pagecheckerboard="1"
     inkscape:document-units="px"
     showgrid="false"
     units="px"
     width="512px"
     inkscape:zoom="3.1796875"
     inkscape:cx="127.84275"
     inkscape:cy="128"
     inkscape:window-width="1920"
     inkscape:window-height="1029"
     inkscape:window-x="0"
     inkscape:window-y="50"
     inkscape:window-maximized="1"
     inkscape:current-layer="sym-15"
     borderlayer="true" />
  <defs
     id="defs6436" />
  <g
     inkscape:label="Layer 1"
     inkscape:groupmode="layer"
     id="layer1">
    <g
       id="sym-0">
      <path
         id="sym-0-bbox"
         style="fill:none;stroke-width:0;stroke:none"
         d="M 0,0 H 64 V 64 H 0 Z" />
      <path
         id="sym-0-shape"
         style="stroke-width:0"
         d="M 64,32 A 32,32 0 0 1 32,64 32,32 0 0 1 0,32 32,32 0 0 1 32,0 32,32 0 0 1 64,32 Z" />
    </g>
    <g
       id="sym-1"
       transform="translate(64)">
      <path
         id="sym-1-bbox"
         style="fill:none;stroke-width:0;stroke:none"
         d="M 0,0 H 64 V 64 H 0 Z" />
      <path
         id="sym-1-shape"
         style="stroke-width:0"
         d="M 96 0 A 32 32 0 0 0 64 32 A 32 32 0 0 0 96 64 L 96 32 L 128 32 A 32 32 0 0 0 96 0 z "
         transform="translate(-64)" />
    </g>
    <g
       id="sym-2"
       transform="translate(128)">
      <path
         id="sym-2-bbox"
         style="fill:none;stroke-width:0;stroke:none"
         d="M 0,0 H 64 V 64 H 0 Z" />
      <path
         id="sym-2-shape"
         style="stroke-width:0"
         d="M 64,32 A 32,32 0 0 0 32,0 32,32 0 0 0 0,32 H 32 V 64 A 32,32 0 0 0 64,32 Z" />
    </g>
    <g
       id="sym-3"
       transform="translate(192)">
      <path
         id="sym-3-bbox"
         style="fill:none;stroke-width:0;stroke:none"
         d="M 0,0 H 64 V 64 H 0 Z" />
      <path
         id="sym-3-shape"
         style="stroke-width:0"
         d="M 32,64 A 32,32 0 0 0 64,32 32,32 0 0 0 32,0 V 32 H 0 a 32,32 0 0 0 32,32 z" />
    </g>
    <g
       id="sym-4"
       transform="translate(0,64)">
      <path
         id="sym-4-bbox"
         style="fill:none;stroke-width:0;stroke:none"
         d="M 0,0 H 64 V 64 H 0 Z" />
      <path
         id="sym-4-shape"
         style="stroke-width:0"
         d="M 0,32 A 32,32 0 0 0 32,64 32,32 0 0 0 64,32 H 32 V 0 A 32,32 0 0 0 0,32 Z" />
    </g>
    <g
       id="sym-5"
       transform="translate(64,64)">
      <path
         id="sym-5-bbox"
         style="fill:none;stroke-width:0;stroke:none"
         d="M 0,0 H 64 V 64 H 0 Z" />
      <path
         id="sym-5-shape"
         style="stroke:none;stroke-width:0"
         d="M 0,0 H 64 V 64 H 0 Z" />
    </g>
    <g
       id="sym-6"
       transform="translate(128,64)">
      <path
         id="sym-6-bbox"
         style="fill:none;stroke-width:0;stroke:none"
         d="M 0,0 H 64 V 64 H 0 Z" />
      <path
         id="sym-6-shape"
         style="stroke:none;stroke-width:0"
         d="M 0,0 H 64 L 0,64 Z"
         sodipodi:nodetypes="cccc" />
    </g>
    <g
       id="sym-7"
       transform="translate(192,64)">
      <path
         id="sym-7-bbox"
         style="fill:none;stroke-width:0;stroke:none"
         d="M 0,0 H 64 V 64 H 0 Z" />
      <path
         id="sym-7-shape"
         style="stroke:none;stroke-width:0"
         d="M 64,0 V 64 L 0,0 Z"
         sodipodi:nodetypes="cccc" />
    </g>
    <g
       id="sym-8"
       transform="translate(0,128)">
      <path
         id="sym-8-bbox"
         style="fill:none;stroke-width:0;stroke:none"
         d="M 0,0 H 64 V 64 H 0 Z" />
      <path
         id="sym-8-shape"
         style="stroke:none;stroke-width:0"
         d="M 64,64 H 0 L 64,0 Z"
         sodipodi:nodetypes="cccc" />
    </g>
    <g
       id="sym-9"
       transform="translate(64,128)">
      <path
         id="sym-9-bbox"
         style="fill:none;stroke-width:0;stroke:none"
         d="M 0,0 H 64 V 64 H 0 Z" />
      <path
         id="sym-9-shape"
         style="stroke:none;stroke-width:0"
         d="M 0,64 V 0 l 64,64 z"
         sodipodi:nodetypes="cccc" />
    </g>
    <g
       id="sym-10"
       transform="translate(128,128)">
      <path
         id="sym-10-bbox"
         style="fill:none;stroke-width:0;stroke:none"
         d="M 0,0 H 64 V 64 H 0 Z" />
      <path
         id="sym-10-shape"
         style="stroke:none;stroke-width:0"
         d="M 0,0 H 64 V 64 L 32,32 0,64 Z"
         sodipodi:nodetypes="cccccc" />
    </g>
    <g
       id="sym-11"
       transform="translate(192,128)">
      <path
         id="sym-11-bbox"
         style="fill:none;stroke-width:0;stroke:none"
         d="M 0,0 H 64 V 64 H 0 Z" />
      <path
         id="sym-11-shape"
         style="stroke:none;stroke-width:0"
         d="M 64,0 V 64 H 0 L 32,32 0,0 Z"
         sodipodi:nodetypes="cccccc" />
    </g>
    <g
       id="sym-12"
       transform="translate(0,192)">
      <path
         id="sym-12-bbox"
         style="fill:none;stroke-width:0;stroke:none"
         d="M 0,0 H 64 V 64 H 0 Z" />
      <path
         id="sym-12-shape"
         style="stroke:none;stroke-width:0"
         d="M 64,64 H 0 V 0 L 32,32 64,0 Z"
         sodipodi:nodetypes="cccccc" />
    </g>
    <g
       id="sym-13"
       transform="translate(64,192)">
      <path
         id="sym-13-bbox"
         style="fill:none;stroke-width:0;stroke:none"
         d="M 0,0 H 64 V 64 H 0 Z" />
      <path
         id="sym-13-shape"
         style="stroke:none;stroke-width:0"
         d="M 0,64 V 0 H 64 L 32,32 64,64 Z"
         sodipodi:nodetypes="cccccc" />
    </g>
    <g
       id="sym-14"
       transform="translate(128,192)">
      <path
         id="sym-14-bbox"
         style="fill:none;stroke-width:0;stroke:none"
         d="M 0,0 H 64 V 64 H 0 Z" />
      <g
         id="sym-14-shape">
        <path
           style="stroke:none;stroke-width:0"
           d="M 0,0 H 64 L 32,32 0,0"
           id="sym-9-shape1"
           sodipodi:nodetypes="cccc" />
        <path
           style="stroke:none;stroke-width:0"
           d="M 0,64 H 64 L 32,32 0,64"
           id="sym-9-shape2"
           sodipodi:nodetypes="cccc" />
      </g>
    </g>
    <g
       id="sym-15"
       transform="translate(192,192)">
      <path
         id="sym-15-bbox"
         style="fill:none;stroke-width:0;stroke:none"
         d="M 0,0 H 64 V 64 H 0 Z" />
      <g
         id="sym-15-shape"
         transform="rotate(90,32,32)">
        <path
           style="stroke:none;stroke-width:0"
           d="M 0,0 H 64 L 32,32 0,0"
           id="path2371"
           sodipodi:nodetypes="cccc" />
        <path
           style="stroke:none;stroke-width:0"
           d="M 0,64 H 64 L 32,32 0,64"
           id="path2373"
           sodipodi:nodetypes="cccc" />
      </g>
    </g>
  </g>
</svg>
